<?xml version="1.0" encoding="utf-8"?>
<!-- Generator: Adobe Illustrator 16.0.0, SVG Export Plug-In . SVG Version: 6.00 Build 0)  -->
<!DOCTYPE svg PUBLIC "-//W3C//DTD SVG 1.1//EN" "http://www.w3.org/Graphics/SVG/1.1/DTD/svg11.dtd" [
	<!ENTITY ns_flows "http://ns.adobe.com/Flows/1.0/">
	<!ENTITY ns_extend "http://ns.adobe.com/Extensibility/1.0/">
	<!ENTITY ns_ai "http://ns.adobe.com/AdobeIllustrator/10.0/">
	<!ENTITY ns_graphs "http://ns.adobe.com/Graphs/1.0/">
	<!ENTITY ns_vars "http://ns.adobe.com/Variables/1.0/">
	<!ENTITY ns_imrep "http://ns.adobe.com/ImageReplacement/1.0/">
	<!ENTITY ns_sfw "http://ns.adobe.com/SaveForWeb/1.0/">
	<!ENTITY ns_custom "http://ns.adobe.com/GenericCustomNamespace/1.0/">
	<!ENTITY ns_adobe_xpath "http://ns.adobe.com/XPath/1.0/">
]>
<svg version="1.1" xmlns:x="&ns_extend;" xmlns:i="&ns_ai;" xmlns:graph="&ns_graphs;"
	 xmlns="http://www.w3.org/2000/svg" xmlns:xlink="http://www.w3.org/1999/xlink" xmlns:a="http://ns.adobe.com/AdobeSVGViewerExtensions/3.0/"
	 x="0px" y="0px" width="750px" height="750px" viewBox="0 0 750 750" enable-background="new 0 0 750 750" xml:space="preserve">
<metadata>
	<sfw  xmlns="&ns_sfw;">
		<slices></slices>
		<sliceSourceBounds  y="-697.18" x="0" width="2295" height="1447.18" bottomLeftOrigin="true"></sliceSourceBounds>
	</sfw>
</metadata>
<g id="FILL-BACKGROUND">
	<rect fill="#FFFFFF" width="750" height="750"/>
</g>
<g id="N-TEXT">
</g>
<g id="N-DIMENSIONS">
	<g>
		<g id="POLYLINE_128_">
			
				<line fill="none" stroke="#E74C3C" stroke-width="2" stroke-linecap="round" stroke-linejoin="round" stroke-miterlimit="10" x1="498.863" y1="627.176" x2="485.305" y2="627.176"/>
		</g>
		<g id="LINE_2_">
			
				<line fill="none" stroke="#E74C3C" stroke-width="2" stroke-linecap="round" stroke-linejoin="round" stroke-miterlimit="10" x1="413.308" y1="627.176" x2="398.816" y2="627.176"/>
		</g>
		<g id="POLYLINE_127_">
			
				<polyline fill="none" stroke="#E74C3C" stroke-width="2" stroke-linecap="round" stroke-linejoin="round" stroke-miterlimit="10" points="
				405.445,633.805 398.816,627.176 405.445,620.549 			"/>
		</g>
		<g id="POLYLINE_126_">
			
				<polyline fill="none" stroke="#E74C3C" stroke-width="2" stroke-linecap="round" stroke-linejoin="round" stroke-miterlimit="10" points="
				492.236,620.549 498.863,627.176 492.236,633.805 			"/>
		</g>
		<g id="MTEXT_18_">
			<g>
				<g>
					<g>
						<path fill="#E74C3C" d="M422.76,632.404c-0.061-0.064-0.09-0.147-0.09-0.247v-8.46l-2.52,1.935
							c-0.07,0.061-0.146,0.09-0.226,0.09c-0.09,0-0.175-0.05-0.255-0.149l-0.359-0.465c-0.051-0.07-0.076-0.141-0.076-0.211
							c0-0.109,0.051-0.199,0.15-0.27l3.255-2.52c0.11-0.07,0.24-0.105,0.39-0.105h0.705c0.1,0,0.183,0.032,0.248,0.098
							c0.064,0.065,0.098,0.147,0.098,0.247v9.811c0,0.1-0.033,0.183-0.098,0.247c-0.065,0.065-0.148,0.098-0.248,0.098H423
							C422.9,632.502,422.82,632.47,422.76,632.404z"/>
						<path fill="#E74C3C" d="M427.268,632.404c-0.055-0.064-0.082-0.143-0.082-0.232l0.029-0.135l3.75-8.775h-4.95
							c-0.101,0-0.183-0.032-0.247-0.098c-0.065-0.064-0.098-0.147-0.098-0.247v-0.555c0-0.11,0.029-0.197,0.09-0.263
							s0.145-0.098,0.255-0.098h6.12c0.109,0,0.195,0.032,0.255,0.098s0.091,0.152,0.091,0.263v0.51c0,0.18-0.041,0.375-0.121,0.585
							l-3.705,8.67c-0.05,0.11-0.104,0.2-0.164,0.27c-0.061,0.07-0.146,0.105-0.256,0.105h-0.75
							C427.395,632.502,427.322,632.47,427.268,632.404z"/>
						<path fill="#E74C3C" d="M433.793,624.612c-0.046-0.061-0.059-0.136-0.038-0.226l0.33-2.1c0.04-0.29,0.18-0.436,0.42-0.436
							h0.96c0.07,0,0.127,0.025,0.172,0.075c0.045,0.051,0.068,0.11,0.068,0.181c0,0.1-0.016,0.18-0.045,0.239l-0.78,2.025
							c-0.05,0.11-0.104,0.192-0.165,0.247c-0.061,0.056-0.15,0.083-0.27,0.083h-0.465
							C433.899,624.702,433.838,624.672,433.793,624.612z M436.147,624.612c-0.046-0.061-0.058-0.136-0.038-0.226l0.33-2.1
							c0.04-0.29,0.18-0.436,0.42-0.436h0.961c0.069,0,0.127,0.025,0.172,0.075c0.045,0.051,0.067,0.11,0.067,0.181
							c0,0.1-0.015,0.18-0.045,0.239l-0.78,2.025c-0.05,0.11-0.104,0.192-0.164,0.247c-0.061,0.056-0.15,0.083-0.271,0.083h-0.465
							C436.254,624.702,436.192,624.672,436.147,624.612z"/>
						<path fill="#E74C3C" d="M443.549,635.524c-0.061-0.065-0.09-0.147-0.09-0.247v-15.87c0-0.101,0.029-0.183,0.09-0.248
							c0.061-0.064,0.141-0.098,0.24-0.098h0.555c0.1,0,0.183,0.033,0.248,0.098c0.064,0.065,0.098,0.147,0.098,0.248v15.87
							c0,0.1-0.033,0.182-0.098,0.247c-0.065,0.065-0.148,0.098-0.248,0.098h-0.555C443.689,635.622,443.609,635.59,443.549,635.524
							z"/>
						<path fill="#E74C3C" d="M455.271,632.404c-0.065-0.064-0.098-0.147-0.098-0.247v-2.19h-4.875c-0.1,0-0.183-0.032-0.248-0.098
							c-0.064-0.064-0.098-0.147-0.098-0.247v-0.555c0-0.141,0.056-0.29,0.166-0.45l4.515-6.36c0.05-0.08,0.125-0.143,0.226-0.188
							c0.1-0.045,0.209-0.067,0.33-0.067h1.02c0.109,0,0.195,0.03,0.255,0.09c0.06,0.061,0.09,0.146,0.09,0.255v6.36h1.365
							c0.1,0,0.183,0.032,0.247,0.098c0.064,0.064,0.098,0.147,0.098,0.247v0.57c0,0.1-0.033,0.183-0.098,0.247
							c-0.064,0.065-0.147,0.098-0.247,0.098h-1.365v2.19c0,0.1-0.032,0.183-0.098,0.247c-0.065,0.065-0.147,0.098-0.247,0.098
							h-0.69C455.418,632.502,455.336,632.47,455.271,632.404z M451.514,628.737h3.676v-5.221L451.514,628.737z"/>
						<path fill="#E74C3C" d="M461.174,632.27c-0.57-0.255-1.003-0.588-1.297-0.998c-0.296-0.409-0.453-0.834-0.473-1.274
							c0-0.09,0.029-0.162,0.09-0.218c0.06-0.055,0.135-0.082,0.225-0.082h0.675c0.11,0,0.2,0.022,0.271,0.067
							c0.069,0.045,0.125,0.133,0.164,0.263c0.131,0.51,0.413,0.869,0.848,1.08c0.436,0.21,0.947,0.314,1.538,0.314
							c0.72,0,1.292-0.173,1.718-0.518c0.425-0.345,0.637-0.837,0.637-1.478c0-1.22-0.744-1.83-2.234-1.83h-1.41
							c-0.1,0-0.183-0.032-0.248-0.098c-0.064-0.064-0.098-0.147-0.098-0.247v-0.39c0-0.15,0.056-0.28,0.166-0.391l2.925-3.239
							h-4.44c-0.1,0-0.182-0.03-0.247-0.091c-0.065-0.06-0.098-0.14-0.098-0.239v-0.54c0-0.11,0.032-0.197,0.098-0.263
							s0.147-0.098,0.247-0.098h5.94c0.11,0,0.197,0.032,0.263,0.098c0.064,0.065,0.098,0.152,0.098,0.263v0.495
							c0,0.109-0.051,0.225-0.15,0.345l-2.926,3.285h0.24c1.021,0.029,1.828,0.295,2.423,0.795s0.893,1.229,0.893,2.189
							c0,0.66-0.163,1.228-0.487,1.703c-0.325,0.475-0.777,0.84-1.357,1.095s-1.235,0.383-1.965,0.383
							C462.419,632.652,461.744,632.524,461.174,632.27z"/>
						<path fill="#E74C3C" d="M468.846,632.404c-0.064-0.064-0.098-0.147-0.098-0.247v-1.035c0-0.1,0.033-0.185,0.098-0.255
							c0.065-0.07,0.148-0.105,0.248-0.105h1.035c0.1,0,0.182,0.035,0.247,0.105s0.098,0.155,0.098,0.255v1.035
							c0,0.1-0.032,0.183-0.098,0.247c-0.065,0.065-0.147,0.098-0.247,0.098h-1.035C468.994,632.502,468.911,632.47,468.846,632.404
							z"/>
						<path fill="#E74C3C" d="M472.311,632.404c-0.064-0.064-0.098-0.147-0.098-0.247v-0.45c0-0.23,0.125-0.45,0.375-0.66
							l3.271-3.255c0.74-0.63,1.25-1.145,1.53-1.545c0.279-0.4,0.42-0.825,0.42-1.275c0-0.59-0.165-1.052-0.495-1.388
							c-0.33-0.334-0.81-0.502-1.44-0.502c-0.6,0-1.074,0.175-1.424,0.525c-0.352,0.35-0.566,0.819-0.646,1.409
							c-0.021,0.11-0.07,0.195-0.15,0.255c-0.08,0.061-0.159,0.091-0.239,0.091h-0.721c-0.09,0-0.165-0.03-0.225-0.091
							c-0.061-0.06-0.09-0.129-0.09-0.21c0.02-0.529,0.162-1.042,0.428-1.537c0.264-0.495,0.656-0.9,1.177-1.215
							c0.521-0.315,1.149-0.473,1.89-0.473c1.12,0,1.963,0.293,2.527,0.878c0.565,0.585,0.848,1.327,0.848,2.228
							c0,0.63-0.152,1.197-0.457,1.702s-0.783,1.037-1.433,1.598l-2.955,3h4.726c0.109,0,0.195,0.029,0.254,0.09
							c0.061,0.06,0.091,0.145,0.091,0.255v0.57c0,0.1-0.032,0.183-0.098,0.247c-0.065,0.065-0.147,0.098-0.247,0.098h-6.57
							C472.459,632.502,472.376,632.47,472.311,632.404z"/>
					</g>
				</g>
			</g>
		</g>
	</g>
</g>
<g id="AG-GUIDE">
	<g id="POLYLINE_1_">
		<g>
			<g>
				
					<line fill="none" stroke="#E74C3C" stroke-width="2" stroke-linecap="round" stroke-linejoin="round" x1="106.282" y1="341.609" x2="106.282" y2="341.609"/>
				
					<line fill="none" stroke="#E74C3C" stroke-width="2" stroke-linecap="round" stroke-linejoin="round" stroke-dasharray="0,3.9828" x1="110.265" y1="341.609" x2="498.584" y2="341.609"/>
				
					<line fill="none" stroke="#E74C3C" stroke-width="2" stroke-linecap="round" stroke-linejoin="round" x1="500.576" y1="341.609" x2="500.576" y2="341.609"/>
			</g>
		</g>
	</g>
	<g id="POLYLINE_2_">
		<g>
			<g>
				
					<line fill="none" stroke="#E74C3C" stroke-width="2" stroke-linecap="round" stroke-linejoin="round" x1="106.282" y1="480.346" x2="106.282" y2="480.346"/>
				
					<line fill="none" stroke="#E74C3C" stroke-width="2" stroke-linecap="round" stroke-linejoin="round" stroke-dasharray="0,4.0151" x1="110.297" y1="480.346" x2="397.377" y2="480.346"/>
				
					<line fill="none" stroke="#E74C3C" stroke-width="2" stroke-linecap="round" stroke-linejoin="round" x1="399.385" y1="480.346" x2="399.385" y2="480.346"/>
			</g>
		</g>
	</g>
	<g id="POLYLINE_67_">
		<g>
			<g>
				
					<line fill="none" stroke="#E74C3C" stroke-width="2" stroke-linecap="round" stroke-linejoin="round" x1="399.385" y1="242.5" x2="399.385" y2="242.5"/>
				
					<line fill="none" stroke="#E74C3C" stroke-width="2" stroke-linecap="round" stroke-linejoin="round" stroke-dasharray="0,4.0476" x1="403.434" y1="242.5" x2="498.553" y2="242.5"/>
				
					<line fill="none" stroke="#E74C3C" stroke-width="2" stroke-linecap="round" stroke-linejoin="round" x1="500.576" y1="242.5" x2="500.576" y2="242.5"/>
			</g>
		</g>
		<g>
			<g>
				
					<line fill="none" stroke="#E74C3C" stroke-width="2" stroke-linecap="round" stroke-linejoin="round" x1="106.282" y1="242.5" x2="106.282" y2="242.5"/>
				
					<line fill="none" stroke="#E74C3C" stroke-width="2" stroke-linecap="round" stroke-linejoin="round" stroke-dasharray="0,4.0151" x1="110.297" y1="242.5" x2="397.377" y2="242.5"/>
				
					<line fill="none" stroke="#E74C3C" stroke-width="2" stroke-linecap="round" stroke-linejoin="round" x1="399.385" y1="242.5" x2="399.385" y2="242.5"/>
			</g>
		</g>
	</g>
	<g id="POLYLINE_68_">
		<g>
			<g>
				
					<line fill="none" stroke="#E74C3C" stroke-width="2" stroke-linecap="round" stroke-linejoin="round" x1="106.282" y1="292.055" x2="106.282" y2="292.055"/>
				
					<line fill="none" stroke="#E74C3C" stroke-width="2" stroke-linecap="round" stroke-linejoin="round" stroke-dasharray="0,4.0151" x1="110.297" y1="292.055" x2="397.377" y2="292.055"/>
				
					<line fill="none" stroke="#E74C3C" stroke-width="2" stroke-linecap="round" stroke-linejoin="round" x1="399.385" y1="292.055" x2="399.385" y2="292.055"/>
			</g>
		</g>
	</g>
	<g id="POLYLINE_70_">
		<g>
			<g>
				
					<line fill="none" stroke="#E74C3C" stroke-width="2" stroke-linecap="round" stroke-linejoin="round" x1="399.385" y1="292.055" x2="399.385" y2="292.055"/>
				
					<line fill="none" stroke="#E74C3C" stroke-width="2" stroke-linecap="round" stroke-linejoin="round" stroke-dasharray="0,4.1296" x1="399.385" y1="287.926" x2="399.385" y2="244.564"/>
				
					<line fill="none" stroke="#E74C3C" stroke-width="2" stroke-linecap="round" stroke-linejoin="round" x1="399.385" y1="242.5" x2="399.385" y2="242.5"/>
			</g>
		</g>
		<g>
			<path fill="none" d="M399.385,292.055"/>
		</g>
		<g>
			<path fill="none" d="M399.385,480.346"/>
		</g>
		<g>
			<g>
				
					<line fill="none" stroke="#E74C3C" stroke-width="2" stroke-linecap="round" stroke-linejoin="round" x1="399.385" y1="603.783" x2="399.385" y2="603.783"/>
				
					<line fill="none" stroke="#E74C3C" stroke-width="2" stroke-linecap="round" stroke-linejoin="round" stroke-dasharray="0,3.9819" x1="399.385" y1="599.801" x2="399.385" y2="482.336"/>
				
					<line fill="none" stroke="#E74C3C" stroke-width="2" stroke-linecap="round" stroke-linejoin="round" x1="399.385" y1="480.346" x2="399.385" y2="480.346"/>
			</g>
		</g>
	</g>
	<g id="POLYLINE_71_">
		<g>
			<g>
				
					<line fill="none" stroke="#E74C3C" stroke-width="2" stroke-linecap="round" stroke-linejoin="round" x1="500.576" y1="292.055" x2="500.576" y2="292.055"/>
				
					<line fill="none" stroke="#E74C3C" stroke-width="2" stroke-linecap="round" stroke-linejoin="round" stroke-dasharray="0,4.1296" x1="500.576" y1="287.926" x2="500.576" y2="244.564"/>
				
					<line fill="none" stroke="#E74C3C" stroke-width="2" stroke-linecap="round" stroke-linejoin="round" x1="500.576" y1="242.5" x2="500.576" y2="242.5"/>
			</g>
		</g>
		<g>
			<path fill="none" d="M500.576,292.055"/>
		</g>
		<g>
			<path fill="none" d="M500.576,480.346"/>
		</g>
		<g>
			<g>
				
					<line fill="none" stroke="#E74C3C" stroke-width="2" stroke-linecap="round" stroke-linejoin="round" x1="500.576" y1="603.783" x2="500.576" y2="603.783"/>
				
					<line fill="none" stroke="#E74C3C" stroke-width="2" stroke-linecap="round" stroke-linejoin="round" stroke-dasharray="0,3.9819" x1="500.576" y1="599.801" x2="500.576" y2="482.336"/>
				
					<line fill="none" stroke="#E74C3C" stroke-width="2" stroke-linecap="round" stroke-linejoin="round" x1="500.576" y1="480.346" x2="500.576" y2="480.346"/>
			</g>
		</g>
	</g>
	<g>
		<g>
			
				<line fill="none" stroke="#E74C3C" stroke-width="2" stroke-linecap="round" stroke-linejoin="round" x1="501.281" y1="479.824" x2="501.281" y2="479.824"/>
			
				<line fill="none" stroke="#E74C3C" stroke-width="2" stroke-linecap="round" stroke-linejoin="round" stroke-dasharray="0,3.9846" x1="505.266" y1="479.824" x2="559.059" y2="479.824"/>
			
				<line fill="none" stroke="#E74C3C" stroke-width="2" stroke-linecap="round" stroke-linejoin="round" x1="561.051" y1="479.824" x2="561.051" y2="479.824"/>
		</g>
	</g>
	<g>
		<g>
			
				<line fill="none" stroke="#E74C3C" stroke-width="2" stroke-linecap="round" stroke-linejoin="round" x1="501.281" y1="341.609" x2="501.281" y2="341.609"/>
			
				<line fill="none" stroke="#E74C3C" stroke-width="2" stroke-linecap="round" stroke-linejoin="round" stroke-dasharray="0,3.9846" x1="505.266" y1="341.609" x2="559.059" y2="341.609"/>
			
				<line fill="none" stroke="#E74C3C" stroke-width="2" stroke-linecap="round" stroke-linejoin="round" x1="561.051" y1="341.609" x2="561.051" y2="341.609"/>
		</g>
	</g>
	<g>
		<g>
			
				<line fill="none" stroke="#E74C3C" stroke-width="2" stroke-linecap="round" stroke-linejoin="round" x1="500.52" y1="292.342" x2="500.52" y2="292.342"/>
			
				<line fill="none" stroke="#E74C3C" stroke-width="2" stroke-linecap="round" stroke-linejoin="round" stroke-dasharray="0,3.9846" x1="504.504" y1="292.342" x2="558.297" y2="292.342"/>
			
				<line fill="none" stroke="#E74C3C" stroke-width="2" stroke-linecap="round" stroke-linejoin="round" x1="560.289" y1="292.342" x2="560.289" y2="292.342"/>
		</g>
	</g>
	<g>
		<g>
			
				<line fill="none" stroke="#E74C3C" stroke-width="2" stroke-linecap="round" stroke-linejoin="round" x1="500.52" y1="242.5" x2="500.52" y2="242.5"/>
			
				<line fill="none" stroke="#E74C3C" stroke-width="2" stroke-linecap="round" stroke-linejoin="round" stroke-dasharray="0,3.9846" x1="504.504" y1="242.5" x2="558.297" y2="242.5"/>
			
				<line fill="none" stroke="#E74C3C" stroke-width="2" stroke-linecap="round" stroke-linejoin="round" x1="560.289" y1="242.5" x2="560.289" y2="242.5"/>
		</g>
	</g>
</g>
<g id="AG-DIAGRAM">
	<g id="POLYLINE_182_">
		<g>
			<g>
				
					<line fill="none" stroke="#E74C3C" stroke-width="3.5" stroke-linecap="round" stroke-linejoin="round" x1="633.35" y1="603.557" x2="631.35" y2="603.557"/>
				
					<line fill="none" stroke="#E74C3C" stroke-width="3.5" stroke-linecap="round" stroke-linejoin="round" stroke-dasharray="3.9929,6.9876" x1="624.363" y1="603.557" x2="111.775" y2="603.557"/>
				
					<line fill="none" stroke="#E74C3C" stroke-width="3.5" stroke-linecap="round" stroke-linejoin="round" x1="108.282" y1="603.557" x2="106.282" y2="603.557"/>
			</g>
		</g>
	</g>
	<g id="POLYLINE_181_">
		<g>
			<g>
				<polyline fill="none" stroke="#E74C3C" stroke-width="3.5" stroke-linecap="round" stroke-linejoin="round" points="
					498.576,480.346 500.576,480.346 500.576,478.346 				"/>
				
					<line fill="none" stroke="#E74C3C" stroke-width="3.5" stroke-linecap="round" stroke-linejoin="round" stroke-dasharray="3.9632,5.9449" x1="500.576" y1="472.4" x2="500.576" y2="297.027"/>
				<polyline fill="none" stroke="#E74C3C" stroke-width="3.5" stroke-linecap="round" stroke-linejoin="round" points="
					500.576,294.055 500.576,292.055 498.576,292.055 				"/>
				
					<line fill="none" stroke="#E74C3C" stroke-width="3.5" stroke-linecap="round" stroke-linejoin="round" stroke-dasharray="4.0496,6.0744" x1="492.502" y1="292.055" x2="404.422" y2="292.055"/>
				<polyline fill="none" stroke="#E74C3C" stroke-width="3.5" stroke-linecap="round" stroke-linejoin="round" points="
					401.385,292.055 399.385,292.055 399.385,294.055 				"/>
				
					<line fill="none" stroke="#E74C3C" stroke-width="3.5" stroke-linecap="round" stroke-linejoin="round" stroke-dasharray="3.9632,5.9449" x1="399.385" y1="299.999" x2="399.385" y2="475.373"/>
				<polyline fill="none" stroke="#E74C3C" stroke-width="3.5" stroke-linecap="round" stroke-linejoin="round" points="
					399.385,478.346 399.385,480.346 401.385,480.346 				"/>
				
					<line fill="none" stroke="#E74C3C" stroke-width="3.5" stroke-linecap="round" stroke-linejoin="round" stroke-dasharray="4.0496,6.0744" x1="407.459" y1="480.346" x2="495.539" y2="480.346"/>
			</g>
		</g>
	</g>
</g>
<g id="AG-PEOPLE">
	<g id="POLYLINE_133_">
		
			<path fill="none" stroke="#E74C3C" stroke-width="2.75" stroke-linecap="round" stroke-linejoin="round" stroke-miterlimit="10" d="
			M230.222,570.166c3.06,2.918,6.07,5.777,9.579,8.158c3.46,2.35,7.056,4.502,10.319,7.129c2.808,2.262,5.357,4.9,6.852,8.225
			c0.874,1.941,1.578,4.309,1.099,6.455c-0.341,1.529-1.465,2.525-2.948,2.939c-3.109,0.869-6.602,0.412-9.716-0.178
			c-4.271-0.807-8.241-2.41-11.975-4.611c-3.527-2.082-6.855-4.492-10.607-6.174c-7.681-3.443-16.205-4.361-24.372-6.021
			c-4.921-1-11.968-2.906-13.421-8.566c-0.595-2.32,0.062-4.811,0.829-7.006c1.343-3.844,3.127-7.701,5.276-11.16
			c0.324-0.521,0.663-1.033,1.012-1.537"/>
	</g>
	<g id="POLYLINE_132_">
		
			<path fill="none" stroke="#E74C3C" stroke-width="2.75" stroke-linecap="round" stroke-linejoin="round" stroke-miterlimit="10" d="
			M156.926,582.709c-1.118,4.018-2.298,8.074-2.751,12.232c-0.209,1.922-0.385,4.303,0.699,6.037
			c0.672,1.076,1.794,1.672,2.993,1.979c2.394,0.611,5.031,0.402,7.486,0.41c11.658,0.035,23.316,0.072,34.974,0.109
			c3.094,0.01,6.188,0.02,9.281,0.008c2.955-0.01,6.333,0.504,9.16-0.561c1.755-0.66,3.328-2.201,3.647-4.098
			c0.267-1.588-0.44-3.125-1.449-4.312c-2.005-2.359-4.931-3.805-7.842-4.717c-3.822-1.197-7.806-1.779-11.616-3.057
			c-0.138-0.047-0.276-0.094-0.414-0.141"/>
	</g>
	<g id="POLYLINE_131_">
		
			<path fill="none" stroke="#E74C3C" stroke-width="2.75" stroke-linecap="round" stroke-linejoin="round" stroke-miterlimit="10" d="
			M185.832,580.178c-8.454,1.516-17.038,2.275-25.61,2.764c-1.301,0.074-3.363,0.264-4.309-0.908
			c-1.179-1.463-0.47-4.197-0.197-5.811c1.42-8.395,3.504-16.73,5.498-25.002c2.274-9.436,4.732-18.803,7.251-28.176
			c2.039-7.588,3.195-15.326,4.347-23.088c0.708-4.77,1.392-9.541,2.166-14.301c0.629-3.867,1.415-7.709,2.717-11.41
			c1.06-3.012,2.514-6.25,2.055-9.525c-0.441-3.143-2.51-5.85-4.313-8.348c-4.947-6.854-9.864-13.68-14.174-20.961
			c-4.584-7.742-9.07-15.527-14.502-22.719c-5.163-6.836-11.032-13.186-15.443-20.565c-4.1-6.859-6.45-14.425-6.831-22.424
			c-0.373-7.815,0.621-15.827,5.371-22.272c2.61-3.543,5.619-6.817,8.56-10.084c2.211-2.455,4.441-5.236,7.335-6.922
			c2.784-1.623,6.191-2.045,9.354-2.194c4.147-0.194,8.314,0.007,12.433,0.521c8.39,1.046,16.635,3.162,24.293,6.794
			c3.706,1.757,7.247,3.805,10.628,6.125c3.249,2.229,6.562,4.747,8.978,7.896c1.121,1.461,2.052,3.148,2.052,5.035
			c0,2.145-0.983,4.311-2.089,6.096c-0.291,0.47-0.611,0.92-0.962,1.348c-0.279,0.34-0.311,1.018-0.314,1.474
			c-0.004,0.649,0.22,1.224,0.554,1.772c0.72,1.185,1.746,2.182,2.711,3.163c1.722,1.752,3.445,3.502,5.144,5.276
			c5.75,6.009,11.144,12.462,15.543,19.535c4.871,7.832,8.779,16.207,12.853,24.467c3.628,7.355,7.404,14.693,11.837,21.604
			c2.349,3.662,5.017,7.17,7.001,11.055c1.953,3.822,2.857,7.973,2.627,12.264c-0.216,4.041-1.396,7.928-3.432,11.418
			c-2.099,3.602-4.856,6.773-7.261,10.164c-4.948,6.977-8.683,14.604-11.97,22.479c-3.309,7.93-6.2,16.127-8.197,24.492
			c-0.98,4.105-1.352,8.336-2.371,12.428c-0.796,3.193-2.911,5.838-3.614,9.062c-0.853,3.914-0.699,7.998-0.837,11.977
			c-0.064,1.855-0.108,3.756-0.509,5.578c-0.134,0.609-0.307,1.301-0.746,1.771c-0.695,0.746-1.815,0.555-2.689,0.27
			c-3.067-0.998-5.294-3.428-7.713-5.426c-6.359-5.26-14.938-6.541-22.812-7.98c-1.307-0.238-2.782-0.4-3.984-1.01
			c-0.322-0.164-0.637-0.367-0.811-0.695c-0.663-1.254,0.646-3.404,1.161-4.418c1.941-3.834,4.286-7.449,6.271-11.258
			c1.861-3.574,3.502-7.242,4.709-11.09c2.537-8.084,3.658-16.436,4.271-24.857c0.612-8.41,1.107-16.842,4.936-24.523
			c1.923-3.859,4.455-7.342,6.582-11.082c0.698-1.229,1.663-2.832,0.989-4.268c-0.364-0.775-1.08-1.379-1.726-1.908
			c-1.624-1.334-3.37-2.514-5.012-3.826c-3.231-2.582-6.296-5.385-9.295-8.23c-5.988-5.682-11.849-11.506-17.531-17.494
			c-6.469-6.818-12.765-13.869-19.566-20.361c-6.281-5.996-13.025-11.494-19.882-16.816"/>
	</g>
	<g id="POLYLINE_130_">
		
			<path fill="none" stroke="#E74C3C" stroke-width="2.75" stroke-linecap="round" stroke-linejoin="round" stroke-miterlimit="10" d="
			M246.853,273.005c4.383,7.753,8.738,15.515,12.749,23.468c0.736,1.459,1.513,3.26,3.214,3.785c1.337,0.412,2.866,0.249,4.238,0.24
			c1.478-0.008,2.968-0.109,4.409-0.452c3.083-0.732,5.561-2.616,7.708-4.882c2.62-2.766,4.894-6.065,6.438-9.553
			c0.713-1.608,1.321-3.41,0.992-5.191c-0.453-2.452-2.287-4.443-3.072-6.799c-1.282-3.844-1.603-7.958-2.717-11.854
			c-1.113-3.893-2.879-7.602-4.803-11.15c-2.083-3.842-4.229-7.652-6.479-11.398c-1.249-2.078-2.517-4.141-3.795-6.201
			c-0.224-0.361-0.447-0.721-0.671-1.082c-0.249-0.4-1.06-0.76-1.445-1.033c-0.775-0.553-1.572-1.076-2.395-1.559
			c-3.744-2.191-7.856-3.774-11.835-5.474c-1.77-0.755-3.542-1.505-5.314-2.255c-2.011-0.85-4.396-1.48-6.096-2.869
			c-1.654-1.352-3.498-2.45-5.299-3.588c-0.962-0.609-1.933-1.225-3.018-1.592c-2.428-0.82-5.117-0.279-7.57,0.126
			c-2.188,0.36-4.383,0.804-6.601,0.933c-1.919,0.112-3.837-0.037-5.753-0.149c-3.767-0.221-7.561,0.04-11.227,0.974
			c-3.824,0.975-7.057,3.3-10.548,5.051c-1.684,0.846-3.383,1.678-4.961,2.711c-1.825,1.194-3.402,2.699-5.002,4.169
			c-2.906,2.668-6.083,5.05-9.496,7.035c-2.184,1.271-4.688,2.394-6.154,4.552c-1.066,1.568-1.33,3.482-1.216,5.34
			c0.207,3.379,1.364,6.794,2.985,9.752c0.854,1.56,1.874,3.045,3.138,4.302"/>
	</g>
	<g id="POLYLINE_129_">
		
			<path fill="none" stroke="#E74C3C" stroke-width="2.75" stroke-linecap="round" stroke-linejoin="round" stroke-miterlimit="10" d="
			M205.541,214.424c-7.262-6.121-14.523-12.242-21.785-18.363c-6.869-5.791-13.632-11.713-20.445-17.57
			c-6.812-5.856-13.491-11.875-20.23-17.816c-2.362-2.082-4.724-4.164-7.085-6.247"/>
	</g>
	<g id="POLYLINE_125_">
		
			<path fill="none" stroke="#E74C3C" stroke-width="2.75" stroke-linecap="round" stroke-linejoin="round" stroke-miterlimit="10" d="
			M215.733,214.609c-7.029-6.781-14.058-13.562-21.087-20.344c-4.417-4.262-8.833-8.522-13.294-12.738
			c-8.812-8.326-17.625-16.654-26.437-24.98c-3.732-3.527-7.465-7.054-11.197-10.58"/>
	</g>
	<g id="POLYLINE_124_">
		
			<path fill="none" stroke="#E74C3C" stroke-width="2.75" stroke-linecap="round" stroke-linejoin="round" stroke-miterlimit="10" d="
			M278.357,202.533c-0.716,1.456-1.444,2.9-1.838,4.484c-0.464,1.865-0.558,3.801-1.014,5.668c-0.628,2.575-2.56,4.354-3.69,6.687
			c-1.343,2.771-1.987,5.824-3.367,8.583c-0.778,1.557-1.817,3.129-3.391,3.973"/>
	</g>
	<g id="POLYLINE_109_">
		
			<line fill="none" stroke="#E74C3C" stroke-width="2.75" stroke-linecap="round" stroke-linejoin="round" stroke-miterlimit="10" x1="231.318" y1="210.697" x2="230.093" y2="213.727"/>
	</g>
	<g id="POLYLINE_108_">
		
			<path fill="none" stroke="#E74C3C" stroke-width="2.75" stroke-linecap="round" stroke-linejoin="round" stroke-miterlimit="10" d="
			M161.364,241.195c-2.754,1.092-4.825,2.486-6.604,4.865c-1.183,1.582-2.208,3.281-3.272,4.941
			c-1.163,1.814-2.373,3.607-3.412,5.496c-1.724,3.133-3.1,6.623-3.468,10.205c-0.187,1.814-0.113,3.809,0.822,5.432
			c0.791,1.373,2.139,2.347,3.55,3.009c3.088,1.45,6.808,2.015,10.187,1.628c0.735-0.084,1.464-0.212,2.185-0.381"/>
	</g>
	<g id="POLYLINE_107_">
		
			<path fill="none" stroke="#E74C3C" stroke-width="2.75" stroke-linecap="round" stroke-linejoin="round" stroke-miterlimit="10" d="
			M147.831,329.469c1.588-4.072,3.226-8.124,4.542-12.296c1.298-4.114,2.249-8.313,3.118-12.536
			c1.766-8.579,3.183-17.221,5.224-25.741c1.969-8.224,4.639-16.382,8.048-24.123c1.378-3.13,3.025-6.104,4.735-9.062"/>
	</g>
	<g id="POLYLINE_106_">
		
			<path fill="none" stroke="#E74C3C" stroke-width="2.75" stroke-linecap="round" stroke-linejoin="round" stroke-miterlimit="10" d="
			M134.362,148.281c1.128-3.309,5.088-4.854,8.159-3.184c3.069,1.671,3.927,5.836,1.76,8.58s-6.412,2.885-8.753,0.285
			C134.152,152.436,133.698,150.227,134.362,148.281z"/>
	</g>
	<g id="POLYLINE_105_">
		
			<path fill="none" stroke="#E74C3C" stroke-width="2.75" stroke-linecap="round" stroke-linejoin="round" stroke-miterlimit="10" d="
			M255.38,288.33c-2.077,2.353-4.19,4.805-5.265,7.801c-0.96,2.678-1.122,5.699-2.823,8.072c-1.795,2.502-4.735,3.848-6.877,5.999
			c-1.709,1.718-2.076,3.848-2.54,6.151c-0.695,3.449-2.442,6.248-4.555,9.026c-2.806,3.69-5.449,7.46-8.068,11.285
			c-3.814,5.571-7.764,11.022-11.985,16.293"/>
	</g>
	<g id="POLYLINE_104_">
		
			<path fill="none" stroke="#E74C3C" stroke-width="2.75" stroke-linecap="round" stroke-linejoin="round" stroke-miterlimit="10" d="
			M286.684,281.781c2.095,2.064,3.918,4.289,4.925,7.087c1.297,3.601,1.559,7.784,0.741,11.521c-1.107,5.059-4.778,7.998-9.77,9.098
			c-3.177,0.7-6.643,0.809-9.788-0.112c-2.537-0.743-4.5-2.294-6.096-4.366c-1.144-1.485-2.171-3.062-3.234-4.607"/>
	</g>
	<g id="POLYLINE_103_">
		
			<path fill="none" stroke="#E74C3C" stroke-width="2.75" stroke-linecap="round" stroke-linejoin="round" stroke-miterlimit="10" d="
			M281.839,195.744c1.673,1.303,3.245,2.72,4.829,4.129c0.838,0.745,1.674,1.491,2.531,2.215c0.213,0.18,0.69,0.47,0.791,0.756
			c0.564,1.016-3.539,0.672-3.76,0.66c-4.158-0.23-8.324-0.982-12.403-1.791c-4.297-0.852-8.572-1.824-12.782-3.043
			c-3.74-1.084-7.504-2.697-11.385-3.197c-1.041-0.135-2.567-0.252-3.08,0.908c-0.297,0.673-0.192,1.52-0.117,2.225
			c0.196,1.838,0.644,3.641,0.751,5.49c0.132,2.273-0.417,4.506-1.872,6.294c-2.498,3.07-7.834,5.129-11.494,2.967
			c-4.888-2.888-4.481-10.446-4.406-15.265c0.066-4.223,0.024-8.482,0.689-12.664c0.644-4.043,2.146-7.954,4.377-11.387
			c2.312-3.556,5.374-6.543,9.241-8.352c3.715-1.738,7.907-2.336,11.981-2.264c7.147,0.126,14.53,2.209,19.946,7.044
			c3.151,2.813,5.479,6.515,6.43,10.644c0.847,3.68,0.796,7.604,0.309,11.332C282.272,193.554,282.103,194.656,281.839,195.744z"/>
	</g>
	<g id="POLYLINE_5_">
		<path fill="none" stroke="#E74C3C" stroke-width="2" stroke-linecap="round" stroke-linejoin="round" stroke-miterlimit="10" d="
			M412.793,600.582c-1.613-1.623-0.904-4.773-0.738-6.732c0.361-4.285,0.414-8.586,0.682-12.877
			c0.127-2.051,0.277-4.098,0.533-6.137"/>
	</g>
	<g id="POLYLINE_6_">
		<path fill="none" stroke="#E74C3C" stroke-width="2" stroke-linecap="round" stroke-linejoin="round" stroke-miterlimit="10" d="
			M447.197,573.975c1.221,2.404,1.48,5.352,3.527,7.285c2.031,1.918,5.098,2.486,7.682,3.221c2.883,0.82,5.592,1.885,7.492,4.314
			c1.689,2.164,2.764,5.02,3.033,7.74c0.139,1.41-0.012,2.93-0.967,4.047"/>
	</g>
	<g id="POLYLINE_8_">
		<path fill="none" stroke="#E74C3C" stroke-width="2" stroke-linecap="round" stroke-linejoin="round" stroke-miterlimit="10" d="
			M390.252,540.359c-3.307,1.619-6.596,3.641-9.045,6.438c-2.471,2.824-4.02,6.314-6.494,9.154
			c-2.635,3.025-5.779,5.619-8.969,8.035c-3.293,2.496-6.748,4.816-10.315,6.904c-6.736,3.947-15.06,7.359-19.478,14.156
			c-2.246,3.455-3.368,7.496-5.568,10.969c-1.27,2.006-3.071,3.744-5.376,4.465c-3.997,1.252-7.578-1.346-10.66-3.609
			c-1.639-1.203-3.259-2.449-5.029-3.457c-1.681-0.959-3.427-1.814-5.021-2.92c-2.341-1.621-4.011-4.049-4.854-6.758
			c-0.575-1.85-0.765-3.908-0.2-5.787c0.691-2.297,2.376-4.131,4.167-5.652c3.135-2.662,6.846-4.562,10.285-6.785
			c3.394-2.195,6.405-4.781,9.104-7.789c5.375-5.988,9.888-12.828,14.053-19.693c4.597-7.58,8.81-15.773,15.04-22.186
			c2.57-2.645,5.411-4.988,8.338-7.225"/>
	</g>
	<g id="POLYLINE_9_">
		<path fill="none" stroke="#E74C3C" stroke-width="2" stroke-linecap="round" stroke-linejoin="round" stroke-miterlimit="10" d="
			M478.078,395.802c-2.867,1.47-6.543,1.364-9.668,1.335c-4.564-0.043-9.129-0.385-13.686-0.627
			c-4.16-0.223-8.332-0.148-12.496-0.233c-2.596-0.054-5.949,0.067-8.242-1.397c-1.521-0.971-1.678-2.738-1.553-4.392
			c0.295-3.937,1.32-7.987,2.607-11.708c2.193-6.348,5.783-12.344,12.078-15.263c6.895-3.198,16.021-3.173,22.691,0.602
			c6.373,3.606,10.012,10.376,11.209,17.429c0.543,3.199,0.771,6.704,0.098,9.9C480.729,393.297,479.803,394.916,478.078,395.802z"
			/>
	</g>
	<g id="POLYLINE_10_">
		<path fill="none" stroke="#E74C3C" stroke-width="2" stroke-linecap="round" stroke-linejoin="round" stroke-miterlimit="10" d="
			M479.381,410.625c-0.656,4.156-1.883,8.244-3.201,12.23c-1.279,3.871-2.58,7.98-4.77,11.449c-3.348,5.301-9.545,6.281-15.424,6.26
			c-3.389-0.012-7.193-0.391-10.178-2.117c-1.875-1.084-3.219-2.732-4.254-4.619c-1.973-3.594-3.219-7.625-4.516-11.498
			c-1.314-3.932-2.605-7.996-3.404-12.07c-0.326-1.67-0.777-4.012,0.531-5.402c1.074-1.141,2.887-1.303,4.357-1.275
			c3.592,0.064,6.973,1.775,10.475,2.42c3.926,0.721,7.982,0.744,11.951,0.447c4.15-0.309,8.197-1.34,12.336-1.699
			c1.643-0.143,3.9-0.266,5.287,0.859C480.002,406.768,479.615,409.062,479.381,410.625z"/>
	</g>
	<g id="POLYLINE_11_">
		<path fill="none" stroke="#E74C3C" stroke-width="2" stroke-linecap="round" stroke-linejoin="round" stroke-miterlimit="10" d="
			M433.322,407.953c-1.043-5.826-1.316-11.732-0.838-17.633"/>
	</g>
	<g id="POLYLINE_12_">
		<path fill="none" stroke="#E74C3C" stroke-width="2" stroke-linecap="round" stroke-linejoin="round" stroke-miterlimit="10" d="
			M479.381,410.625c2.109-7.596,2.814-15.375,2.102-23.23"/>
	</g>
	<g id="POLYLINE_13_">
		<path fill="none" stroke="#E74C3C" stroke-width="2" stroke-linecap="round" stroke-linejoin="round" stroke-miterlimit="10" d="
			M435.625,395.567c-0.598,2.722-0.348,5.608,0.307,8.298"/>
	</g>
	<g id="POLYLINE_14_">
		<path fill="none" stroke="#E74C3C" stroke-width="2" stroke-linecap="round" stroke-linejoin="round" stroke-miterlimit="10" d="
			M477.098,404.926c0.609-2.967,1.129-5.955,0.697-8.986"/>
	</g>
	<g id="POLYLINE_15_">
		<path fill="none" stroke="#E74C3C" stroke-width="2" stroke-linecap="round" stroke-linejoin="round" stroke-miterlimit="10" d="
			M389.695,482.934c1.012,0.551,2.551,1.402,3.73,0.854c0.227-0.105,0.402-0.258,0.562-0.447c0.48-0.572,0.801-1.348,1.193-1.984
			c0.494-0.803,1.02-1.588,1.562-2.357c1.377-1.951,2.9-3.785,4.531-5.527"/>
	</g>
	<g id="POLYLINE_16_">
		<path fill="none" stroke="#E74C3C" stroke-width="2" stroke-linecap="round" stroke-linejoin="round" stroke-miterlimit="10" d="
			M389.873,483.031c-3.834-2.074-7.656-4.176-11.617-6.002c-3.438-1.582-7.074-3.15-10.83-3.77
			c-0.869-0.145-2.859,0.143-3.229-1.008c-0.164-0.51,0-1.15,0.115-1.65c0.432-1.873,1.209-3.701,1.936-5.475
			c3.295-8.059,7.125-16.025,12.205-23.129c2.354-3.287,4.938-6.355,7.918-9.092c3.201-2.939,6.826-5.336,10.566-7.527
			c0.773-0.451,1.562-0.877,2.346-1.311"/>
	</g>
	<g id="POLYLINE_17_">
		<path fill="none" stroke="#E74C3C" stroke-width="2" stroke-linecap="round" stroke-linejoin="round" stroke-miterlimit="10" d="
			M412.443,499.432c-3.287-2.637-6.949-4.678-10.674-6.631c-3.582-1.877-7.311-3.641-11.186-4.822
			c-1.51-0.461-2.676-1.217-3.117-2.805c-0.312-1.127-0.387-2.367-0.094-3.506"/>
	</g>
	<g id="POLYLINE_18_">
		<path fill="none" stroke="#E74C3C" stroke-width="2" stroke-linecap="round" stroke-linejoin="round" stroke-miterlimit="10" d="
			M409.387,515.166c-1.035,1.494-1.645,2.672-3.529,3.012c-3.004,0.539-6.285-0.096-9.264-0.553
			c-5.48-0.842-10.961-1.684-16.441-2.525c-3.514-0.541-7.021-1.111-10.473-1.979c-4.188-1.051-9.732-2.744-11.1-7.416
			c-0.893-3.055-0.338-6.396,0.119-9.475c0.627-4.219,1.5-8.398,2.469-12.551c0.889-3.799,1.938-7.559,3.074-11.291"/>
	</g>
	<g id="POLYLINE_19_">
		<path fill="none" stroke="#E74C3C" stroke-width="2" stroke-linecap="round" stroke-linejoin="round" stroke-miterlimit="10" d="
			M438.082,511.18c-3.77,2.029-7.9,3.381-12.027,4.459c-3.375,0.881-6.803,1.324-10.281,0.926c-1.814-0.207-3.611-0.592-5.365-1.094
			c-1.391-0.4-2.879-0.811-4.129-1.57c-1.289-0.783-1.752-1.98-1.807-3.447c-0.096-2.572,0.465-5.762,1.715-8.043
			c0.926-1.686,2.502-2.443,4.35-2.764c2.361-0.412,4.826-0.301,7.213-0.328c2.914-0.031,5.832-0.133,8.742,0.061"/>
	</g>
	<g id="POLYLINE_20_">
		<path fill="none" stroke="#E74C3C" stroke-width="2" stroke-linecap="round" stroke-linejoin="round" stroke-miterlimit="10" d="
			M497.266,493.561c-4.369,4.578-8.742,10.779-8.621,17.402c0.07,3.779,1.594,7.346,2.756,10.881
			c1.283,3.902,1.74,7.703,1.945,11.793c0.131,2.611,0.25,8.23,4.441,6.439c0.688-0.295,1.395-0.809,1.609-1.559"/>
	</g>
	<g id="POLYLINE_21_">
		<path fill="none" stroke="#E74C3C" stroke-width="2" stroke-linecap="round" stroke-linejoin="round" stroke-miterlimit="10" d="
			M566.104,576.648c-5.713-3.426-7.193-10.773-8.146-16.859c-1.381-8.807-2.723-17.559-5.07-26.174
			c-2.23-8.191-4.844-16.332-8.939-23.801c-0.447-0.814-0.902-1.623-1.354-2.436"/>
	</g>
	<g id="POLYLINE_22_">
		<path fill="none" stroke="#E74C3C" stroke-width="2" stroke-linecap="round" stroke-linejoin="round" stroke-miterlimit="10" d="
			M566.104,576.648c4.002,1.076,7.84,3.764,7.111,8.381c-0.973,6.164-7.91,9.076-13.127,10.777
			c-3.596,1.17-7.438,2.148-11.229,2.299c-2.357,0.092-4.781-0.213-6.844-1.42c-6.572-3.846-7.746-12.664-10.979-18.875
			c-1.691-3.254-4.078-6.07-6.525-8.777c-3.059-3.383-6.201-6.713-9.016-10.307c-4.361-5.568-8.957-12.455-9.389-19.732
			c-0.078-1.322,0.119-2.781-0.242-4.074c-0.086-0.307-0.205-0.607-0.461-0.811c-0.916-0.688-2.369,0.039-3.16,0.57
			c-1.334,0.896-2.371,2.305-2.848,3.838"/>
	</g>
	<g id="POLYLINE_23_">
		<path fill="none" stroke="#E74C3C" stroke-width="2" stroke-linecap="round" stroke-linejoin="round" stroke-miterlimit="10" d="
			M478.125,496.217c1.418-0.924,2.432-2.281,2.391-4.031c-0.061-2.504-1.559-5.094-3.127-6.943
			c-4.865-5.742-13.068-6.039-19.957-4.863c-7.061,1.205-14.35,4.162-18.486,10.305c-1.324,1.965-2.777,4.68-2.613,7.148
			c0.096,1.422,1.199,2.172,2.463,2.582c3.564,1.162,7.664,1.043,11.369,0.982c4.227-0.07,8.457-0.406,12.645-0.977
			c2.893-0.393,5.779-0.896,8.609-1.621C473.705,498.211,476.127,497.52,478.125,496.217z"/>
	</g>
	<g id="POLYLINE_24_">
		<path fill="none" stroke="#E74C3C" stroke-width="2" stroke-linecap="round" stroke-linejoin="round" stroke-miterlimit="10" d="
			M433.322,407.953c-3.91,0.051-7.629,0.381-11.367,1.6c-3.891,1.27-7.645,3.053-11.25,4.977c-3.246,1.732-6.85,3.49-9.348,6.27
			c-2.027,2.256-2.938,5.172-3.26,8.143c-0.822,7.578,1.406,15.551,5.025,22.168c3.873,7.084,9.402,13.17,15.57,18.326
			c4.859,4.062,10.139,7.527,15.678,10.582"/>
	</g>
	<g id="POLYLINE_25_">
		<path fill="none" stroke="#E74C3C" stroke-width="2" stroke-linecap="round" stroke-linejoin="round" stroke-miterlimit="10" d="
			M486.398,483.971c1.188,4.039,1.15,8.434,0.43,12.555c-0.523,3.002-1.408,6.172-3.449,8.521c-2.236,2.574-5.477,4.057-8.621,5.199
			c-3.801,1.379-7.783,2.236-11.781,2.797c-8.084,1.131-16.586,0.824-24.393-1.699c-5.199-1.682-11.463-4.422-12.037-10.584
			c-0.303-3.236,0.391-6.643,1.369-9.713c1.166-3.658,2.986-7.223,5.57-10.088c4.898-5.438,12.105-8.119,19.152-9.4
			c7.953-1.443,16.074-0.924,23.707,1.77c0.744,0.264,1.484,0.539,2.219,0.824"/>
	</g>
	<g id="POLYLINE_26_">
		<path fill="none" stroke="#E74C3C" stroke-width="2" stroke-linecap="round" stroke-linejoin="round" stroke-miterlimit="10" d="
			M495.02,464.908c4.242-6.625,6.801-14.148,7.598-21.986c0.361-3.559,0.168-7.123-0.822-10.57
			c-1.029-3.586-2.57-7.109-4.348-10.385c-1.682-3.094-3.824-5.973-6.828-7.891c-3.035-1.938-6.617-2.959-10.176-3.352
			c-0.354-0.039-0.707-0.07-1.062-0.1"/>
	</g>
	<g id="POLYLINE_27_">
		<path fill="none" stroke="#E74C3C" stroke-width="2" stroke-linecap="round" stroke-linejoin="round" stroke-miterlimit="10" d="
			M542.076,468.658c3.021,2.256,5.805,4.863,7.873,8.041c1.998,3.072,3.176,6.547,3.924,10.115
			c0.779,3.723,1.076,7.686,0.596,11.465c-0.246,1.938-0.836,3.887-2.121,5.395c-1.082,1.27-2.586,2.062-4.141,2.609
			c-3.637,1.279-7.711,1.377-11.521,1.105c-8.52-0.609-16.682-3.746-24.742-6.338c-1.85-0.596-3.715-1.234-5.475-2.064
			c-0.699-0.33-1.621-0.73-2.115-1.367c-0.812-1.043,0.736-2.102,1.264-2.883c1.254-1.859,1.561-4.469,1.414-6.643
			c-0.166-2.467-1.947-4.217-3.053-6.334c-1.824-3.49-2.527-7.361-3.367-11.172c-0.396-1.799-0.934-3.674-2.629-4.65
			c-2.41-1.389-5.396-1.258-7.975-2.18c-2.189-0.785-3.115-3.16-4.727-4.686c-0.406-0.385-1.16-1.053-1.734-0.617
			c-0.346,0.277-0.451,0.873-0.533,1.271c-0.33,1.643-0.301,3.344-0.713,4.973c-0.521,2.057-2.037,3.303-3.07,5.078
			c-1.064,1.828-0.779,4.139-0.416,6.121c0.309,1.686,0.838,3.449,2.104,4.674c0.809,0.783,1.809,1.318,2.793,1.842
			c1.727,0.92,3.354,1.922,4.834,3.209c1.539,1.336,2.867,2.889,4.328,4.303c1.348,1.309,2.812,2.516,4.346,3.602
			c1.449,1.027,2.953,2.02,4.598,2.705c0.541,0.227,1.178,0.461,1.773,0.432c0.242-0.014,0.473-0.055,0.674-0.197"/>
	</g>
	<g id="POLYLINE_28_">
		<path fill="none" stroke="#E74C3C" stroke-width="2" stroke-linecap="round" stroke-linejoin="round" stroke-miterlimit="10" d="
			M504.41,482.547c7.867,0.193,15.738-0.066,23.271-2.588"/>
	</g>
	<g id="POLYLINE_29_">
		<path fill="none" stroke="#E74C3C" stroke-width="2" stroke-linecap="round" stroke-linejoin="round" stroke-miterlimit="10" d="
			M527.682,479.959c3.668-2.191,6.916-5.043,10.213-7.738c1.223-1.002,2.578-1.889,3.697-3.008c0.375-0.375,0.742-0.812,0.857-1.346
			c0.357-1.668-1.574-3.498-2.506-4.574c-2.664-3.072-5.555-5.943-8.223-9.012c-3.053-3.512-6.045-7.09-9.166-10.541
			c-2.855-3.156-5.734-6.291-9.105-8.912c-4.254-3.311-9.051-6.107-13.891-8.469"/>
	</g>
	<g id="POLYLINE_30_">
		<path fill="none" stroke="#E74C3C" stroke-width="2" stroke-linecap="round" stroke-linejoin="round" stroke-miterlimit="10" d="
			M571.529,579.484c4.299-0.543,8.584-0.619,12.912-0.557c3.982,0.059,8.047,0.314,11.924,1.273
			c3.396,0.842,6.932,2.521,8.152,6.043c1.434,4.137-1,8.508-4.018,11.25c-5.699,5.18-14.131,5.234-21.373,5.518
			c-8.816,0.344-17.648,0.416-26.469,0.334c-4.016-0.037-8.117,0.041-12.078-0.703c-2.15-0.404-4.434-1.119-5.975-2.762
			c-1.295-1.379-1.91-3.258-2.238-5.086c-0.65-3.641-0.561-7.723,0.543-11.262c0.084-0.268,0.176-0.531,0.27-0.797"/>
	</g>
	<g id="POLYLINE_31_">
		<path fill="none" stroke="#E74C3C" stroke-width="2" stroke-linecap="round" stroke-linejoin="round" stroke-miterlimit="10" d="
			M339.185,581.217c0.734,3.877,0.61,7.951,0.744,11.883c0.074,2.178,0.078,4.738-1.282,6.58c-1.407,1.906-3.993,2.633-6.212,3.021
			c-3.534,0.619-7.156,0.641-10.734,0.627c-9.337-0.035-18.713,0.156-28.044-0.27c-4.661-0.213-10.958,0.066-12.889-5.16
			c-1.537-4.158-0.703-9.584,2.816-12.51c2.256-1.877,5.051-2.934,7.812-3.83c1.486-0.482,3.013-0.869,4.466-1.447
			c1.15-0.457,2.17-1.137,3.262-1.709"/>
	</g>
	<g id="POLYLINE_45_">
		<path fill="none" stroke="#E74C3C" stroke-width="2" stroke-linecap="round" stroke-linejoin="round" stroke-miterlimit="10" d="
			M372.662,391.86c1.34,1.3,2.695,2.595,3.842,4.073c0.977,1.26,1.633,2.73,2.611,3.982c0.98,1.248,2.277,1.811,3.809,2.121
			c2.125,0.434,4.328,0.562,6.48,0.785c1.867,0.193,3.752,0.314,5.629,0.328c2.645,0.02,5.742-0.02,8.066-1.479
			c4.867-3.053,2.846-10.707,1.982-15.186c-1.801-9.347-3.301-18.748-4.889-28.133c-0.566-3.346-1.16-6.846-2.605-9.943
			c-1.162-2.494-3.09-4.324-5.268-5.959c-5.252-3.941-11.551-7.388-18.016-8.758"/>
	</g>
	<g id="POLYLINE_46_">
		<path fill="none" stroke="#E74C3C" stroke-width="2" stroke-linecap="round" stroke-linejoin="round" stroke-miterlimit="10" d="
			M374.305,333.693c-1.713-2.367-4.662-3.972-7.529-4.444"/>
	</g>
	<g id="POLYLINE_47_">
		<path fill="none" stroke="#E74C3C" stroke-width="2" stroke-linecap="round" stroke-linejoin="round" stroke-miterlimit="10" d="
			M369.34,303.211c1.318-1.52,1.664-3.641,1.629-5.592c-0.059-3.21-1.041-6.417-2.381-9.312c-3.121-6.74-8.863-11.427-15.922-13.629
			c-6.246-1.949-13.055-1.63-19.145,0.723c-6.926,2.676-12.895,7.874-15.173,15.094c-1.269,4.021-1.86,9.938,1.996,12.812
			c2.056,1.532,4.877,1.854,7.348,2.036c4.292,0.314,8.626,0.043,12.924,0.031c4.491-0.012,8.984,0.34,13.465,0.59
			c3.537,0.198,7.226,0.359,10.71-0.399C366.467,305.198,368.186,304.535,369.34,303.211z"/>
	</g>
	<g id="POLYLINE_48_">
		<path fill="none" stroke="#E74C3C" stroke-width="2" stroke-linecap="round" stroke-linejoin="round" stroke-miterlimit="10" d="
			M368.59,321.898c1.488-7.406,2.215-14.889,2.281-22.44"/>
	</g>
	<g id="POLYLINE_49_">
		<path fill="none" stroke="#E74C3C" stroke-width="2" stroke-linecap="round" stroke-linejoin="round" stroke-miterlimit="10" d="
			M368.252,320.508c-0.504-0.887-1.602-1.09-2.543-1.061c-3.082,0.096-5.965,1.86-8.624,3.234c-3.501,1.811-7.031,3.321-10.992,3.75
			c-4.209,0.455-8.503-0.193-12.282-2.139c-3.285-1.691-6.113-4.361-9.593-5.654c-1.721-0.639-3.81-0.848-5.214,0.564
			c-1.53,1.539-1.791,4.115-1.676,6.158c0.172,3.066,1.391,5.905,3.146,8.392c4.171,5.913,11.129,10.022,18.217,11.237
			c3.484,0.596,7.082,0.514,10.51-0.377c3.92-1.018,7.375-3.222,10.374-5.896c2.508-2.236,5.092-4.867,6.543-7.937
			c1.242-2.627,2.703-6.042,2.463-9.026C368.547,321.321,368.461,320.891,368.252,320.508z"/>
	</g>
	<g id="POLYLINE_50_">
		<path fill="none" stroke="#E74C3C" stroke-width="2" stroke-linecap="round" stroke-linejoin="round" stroke-miterlimit="10" d="
			M364.891,319.52c1.088-4.756,1.609-9.562,1.578-14.439"/>
	</g>
	<g id="POLYLINE_51_">
		<path fill="none" stroke="#E74C3C" stroke-width="2" stroke-linecap="round" stroke-linejoin="round" stroke-miterlimit="10" d="
			M321.458,318.14c-0.417-4.764-0.486-9.515-0.238-14.289"/>
	</g>
	<g id="POLYLINE_52_">
		<path fill="none" stroke="#E74C3C" stroke-width="2" stroke-linecap="round" stroke-linejoin="round" stroke-miterlimit="10" d="
			M374.305,333.693c-0.879,8.621-1.906,17.254-2.168,25.922c-0.283,9.383,0.17,18.765,0.451,28.144
			c0.234,7.83,0.246,15.868-1.605,23.526c-1.939,8.02-6.35,15.838-12.135,21.721c-2.697,2.742-5.818,5.008-9.345,6.557
			c-3.571,1.568-7.501,2.342-11.373,2.678c-8.437,0.729-17.037-0.324-25.194-2.523c-4.261-1.148-8.412-2.613-12.577-4.061
			c-4.236-1.473-8.471-2.84-12.772-4.109c-3.401-1.004-7.002-2.133-9.73-4.496c-1.725-1.494-2.938-3.447-3.736-5.572
			c-2.68-7.129-1.159-15.354,0.521-22.523c2.07-8.834,5.193-17.428,8.044-26.028c2.551-7.696,4.622-15.537,5.673-23.591
			c0.569-4.361,1.04-8.754,1.845-13.08c0.567-3.046,1.29-6.209,3.049-8.812c3.761-5.565,10.894-8.354,17.412-8.354
			c2.586,0,5.156,0.34,7.645,1.048"/>
	</g>
	<g id="POLYLINE_53_">
		<path fill="none" stroke="#E74C3C" stroke-width="2" stroke-linecap="round" stroke-linejoin="round" stroke-miterlimit="10" d="
			M317.345,323.619c-0.084-9.065-0.152-18.113,0.056-27.177c0.003-0.149,0.007-0.3,0.01-0.448"/>
	</g>
	<g id="POLYLINE_54_">
		<path fill="none" stroke="#E74C3C" stroke-width="2" stroke-linecap="round" stroke-linejoin="round" stroke-miterlimit="10" d="
			M498.406,539.744c-1.498,1.248-2.865,2.578-4.584,3.531c-1.6,0.887-3.357,1.514-5.096,2.064c-3.982,1.258-8.07,2.195-12.182,2.922
			c-8.32,1.473-16.814,2.328-25.266,1.842c-8.52-0.49-16.803-2.545-25.262-3.479c-8.369-0.924-16.791,0.594-25.123-0.932
			c-3.086-0.564-6.695-1.309-9.24-3.262c-0.766-0.588-1.482-1.369-1.398-2.396c0.119-1.486,1.582-2.65,2.76-3.352
			c3.217-1.916,7.086-2.459,10.471-4.027c6.555-3.037,10.938-9.525,13.729-15.963"/>
	</g>
	<g id="POLYLINE_55_">
		<path fill="none" stroke="#E74C3C" stroke-width="2" stroke-linecap="round" stroke-linejoin="round" stroke-miterlimit="10" d="
			M447.529,549.811c0.559,4.59,0.795,9.223,1.141,13.832c0.146,1.961,0.307,3.92,0.438,5.883c0.061,0.914,0.15,1.957-0.16,2.846
			c-0.521,1.486-2.256,1.848-3.645,2.025c-4.113,0.523-8.453,0.078-12.576-0.01c-4.305-0.092-8.615-0.268-12.92-0.074
			c-1.916,0.086-3.809,0.43-5.719,0.521c-0.686,0.031-1.414,0.021-2.037-0.305c-1.518-0.795-1.848-3.125-2.098-4.598
			c-0.688-4.051-0.871-8.219-1.238-12.305c-0.334-3.73-0.668-7.461-1.004-11.191"/>
	</g>
	<g id="POLYLINE_56_">
		<path fill="none" stroke="#E74C3C" stroke-width="2" stroke-linecap="round" stroke-linejoin="round" stroke-miterlimit="10" d="
			M277.743,426.955c-7.328,1.93-14.484,5.486-20.018,10.717"/>
	</g>
	<g id="POLYLINE_57_">
		<path fill="none" stroke="#E74C3C" stroke-width="2" stroke-linecap="round" stroke-linejoin="round" stroke-miterlimit="10" d="
			M243.562,382.871c-3.477,3.855-5.879,8.213-7.917,12.971"/>
	</g>
	<g id="POLYLINE_58_">
		<path fill="none" stroke="#E74C3C" stroke-width="2" stroke-linecap="round" stroke-linejoin="round" stroke-miterlimit="10" d="
			M258.083,398.635c-2,4.555-4.001,9.111-6.001,13.666c-1.435,3.268-3.052,6.531-4.019,9.975c-0.01,0.035-0.019,0.068-0.029,0.104"
			/>
	</g>
	<g id="POLYLINE_59_">
		<path fill="none" stroke="#E74C3C" stroke-width="2" stroke-linecap="round" stroke-linejoin="round" stroke-miterlimit="10" d="
			M409.959,414.928c-1.488-5.146-3.092-10.24-4.92-15.275"/>
	</g>
	<g id="POLYLINE_60_">
		<path fill="none" stroke="#E74C3C" stroke-width="2" stroke-linecap="round" stroke-linejoin="round" stroke-miterlimit="10" d="
			M389.697,430.137c-3.096-7.975-5.924-16.125-7.777-24.488c-0.309-1.393-0.602-2.787-0.895-4.182"/>
	</g>
	<g id="POLYLINE_61_">
		<path fill="none" stroke="#E74C3C" stroke-width="2" stroke-linecap="round" stroke-linejoin="round" stroke-miterlimit="10" d="
			M384.15,435.053c-6.145-3.809-12.768-6.918-19.582-9.324"/>
	</g>
	<g id="POLYLINE_62_">
		<path fill="none" stroke="#E74C3C" stroke-width="2" stroke-linecap="round" stroke-linejoin="round" stroke-miterlimit="10" d="
			M300.066,321.629c-4.249,1.062-8.448,2.266-12.626,3.579c-3.532,1.11-7.072,2.491-10.112,4.646
			c-2.965,2.102-4.845,4.778-6.872,7.734c-2.414,3.521-4.89,7.021-7.062,10.701c-4.328,7.329-7.442,15.361-12.215,22.434
			c-1.224,1.812-2.566,3.533-3.905,5.262c-1.028,1.328-2.136,2.646-2.918,4.141c-0.699,1.336-0.941,2.76-0.697,4.251
			c0.995,6.062,6.528,11.852,12.17,13.938c1.23,0.455,2.543,0.674,3.813,0.244c2.576-0.871,4.537-3.391,6.343-5.285
			c4.442-4.661,9.289-8.744,14.224-12.871"/>
	</g>
	<g id="POLYLINE_63_">
		<path fill="none" stroke="#E74C3C" stroke-width="2" stroke-linecap="round" stroke-linejoin="round" stroke-miterlimit="10" d="
			M359.814,489.904c-8.541-1.133-17.116-2.461-25.41-4.848c-3.996-1.15-7.842-2.979-11.918-3.83
			c-2.895-0.604-5.542-0.049-8.312,0.869c-9.133,3.025-18.287,5.975-27.452,8.904c-3.317,1.061-6.662,2.094-9.898,3.385
			c-3.931,1.57-7.766,3.377-11.549,5.275c-7.036,3.527-14.028,7.141-21.03,10.736"/>
	</g>
</g>
<g id="AG-SPORTS">
	<g id="POLYLINE_92_">
		
			<rect x="399.385" y="600.582" fill="none" stroke="#E74C3C" stroke-width="2.75" stroke-linecap="round" stroke-linejoin="round" stroke-miterlimit="10" width="101.191" height="2.975"/>
	</g>
</g>
<g id="AG-OUTLINE">
	<g id="POLYLINE_96_">
		
			<path fill="none" stroke="#E74C3C" stroke-width="3.5" stroke-linecap="round" stroke-linejoin="round" stroke-miterlimit="10" d="
			M201.095,586.6c3.827,1.309,7.811,1.936,11.672,3.088c2.975,0.889,6.006,2.311,8.081,4.688c1.013,1.158,1.777,2.639,1.599,4.221
			c-0.218,1.934-1.743,3.518-3.482,4.248c-2.651,1.113-5.864,0.629-8.656,0.639c-3.141,0.012-6.281,0.006-9.422-0.004
			c-11.693-0.037-23.386-0.074-35.079-0.111c-2.546-0.008-5.292,0.213-7.784-0.373c-1.205-0.285-2.357-0.84-3.068-1.891
			c-1.088-1.609-0.991-3.846-0.828-5.676c0.378-4.244,1.597-8.396,2.734-12.484c0.093-0.336-0.709-0.602-0.973-0.941
			c-0.368-0.477-0.49-1.1-0.539-1.684c-0.119-1.424,0.154-2.889,0.398-4.283c0.386-2.207,0.867-4.398,1.321-6.592
			c1.831-8.857,4.007-17.648,6.127-26.441c2.012-8.348,4.625-16.551,6.519-24.924c2.045-9.041,3.127-18.318,4.487-27.479
			c0.551-3.715,1.087-7.459,1.967-11.115c0.448-1.859,0.982-3.689,1.617-5.494c0.717-2.037,1.545-4.082,1.892-6.227
			c0.371-2.293-0.035-4.41-1.073-6.482c-1.83-3.654-4.639-6.852-7-10.16c-5.325-7.463-10.056-15.227-14.724-23.111
			c-4.138-6.988-8.689-13.592-13.753-19.939c-5.34-6.693-10.99-13.332-14.592-21.176c-3.374-7.345-4.567-15.665-3.986-23.697
			c0.265-3.666,0.892-7.41,2.374-10.797c1.683-3.844,4.494-7.008,7.183-10.174c2.763-3.255,5.601-6.545,8.683-9.504
			c1.008-0.969,2.1-1.849,3.338-2.506c0.486-0.258,0.991-0.482,1.507-0.676c0.319-0.119,0.347-0.453,0.47-0.766
			c0.29-0.736,0.58-1.475,0.87-2.211c2.954-7.506,5.199-15.094,6.729-23.016c1.754-9.081,3.366-18.191,5.647-27.158
			c-3.61,0.846-7.478,0.555-10.971-0.676c-1.718-0.604-3.448-1.512-4.564-2.998c-0.9-1.197-1.235-2.686-1.283-4.161
			c-0.112-3.485,1.098-7.047,2.567-10.159c1.774-3.76,4.231-7.271,6.529-10.722c1.573-2.363,3.278-4.431,5.872-5.687
			c0.59-0.286,1.618-0.489,1.922-1.015c0.142-0.245,0.189-0.595,0.301-0.86c0.308-0.73,0.75-1.4,1.284-1.985
			c0.931-1.019,2.106-1.765,3.291-2.452c1.729-1.004,3.465-1.979,5.122-3.102c3.49-2.365,6.413-5.26,9.644-7.936
			c3.1-2.566,6.898-3.965,10.359-5.943c2.219-1.268,4.291-2.5,6.781-3.166c2.394-0.641,4.866-0.963,7.336-1.105
			c-7.262-6.121-14.523-12.242-21.785-18.363c-6.869-5.791-13.632-11.713-20.445-17.57c-6.792-5.839-13.451-11.84-20.17-17.764
			c-1.83-1.613-3.66-3.227-5.49-4.84c-0.679-0.6-1.416-1.168-2.038-1.83c-1.232-1.309-1.786-3.166-1.468-4.937
			c0.472-2.626,2.767-4.616,5.431-4.714c2.982-0.11,4.821,2.208,6.785,4.08c6.981,6.654,13.961,13.308,20.942,19.961
			c9.399,8.96,18.799,17.92,28.198,26.879c6.29,5.995,12.579,11.99,18.869,17.985c0.438,0.418,0.877,0.836,1.316,1.255
			c0.24,0.229,1.453-0.092,1.782-0.135c1.062-0.137,2.118-0.326,3.174-0.501c2.705-0.446,5.708-1.224,8.438-0.535
			c0.321,0.081,0.639,0.183,0.947,0.306c0.133,0.053,1.142-2.639,1.284-2.989c0.063-0.155-0.551-1.136-0.633-1.341
			c-0.256-0.641-0.452-1.303-0.608-1.975c-0.886-3.807-0.649-7.826-0.589-11.7c0.062-3.973,0.116-7.986,0.958-11.886
			c0.886-4.098,2.671-8.027,5.192-11.379c2.53-3.363,5.829-5.986,9.798-7.437c3.799-1.388,7.945-1.761,11.963-1.507
			c7.228,0.457,14.591,2.947,19.658,8.318c5.738,6.084,6.482,14.492,5.105,22.404c-0.069,0.396-0.281,0.905-0.262,1.299
			c0.022,0.451,0.534,0.689,0.917,1.006c0.701,0.578,1.394,1.166,2.072,1.77c1.582,1.408,3.382,2.734,4.845,4.266
			c1.06,1.109-1.291,1.008-1.915,1.008c-1.96,0-3.939-0.219-5.878-0.492c-1.131-0.159-2.26-0.326-3.388-0.504
			c-0.432-0.067-1.055,1.73-1.251,2.186c-1.26,2.93-1.032,6.187-2.158,9.133c-0.425,1.113-1.123,2.072-1.807,3.038
			c-1.005,1.419-1.762,2.868-2.371,4.499c-1.134,3.038-1.936,6.488-4.096,9.011c-0.512,0.599-1.113,1.126-1.81,1.499
			c4.551,7.334,9.238,14.736,12.917,22.56c1.779,3.784,3.048,7.629,3.891,11.722c0.774,3.761,1.331,7.39,3.226,10.775
			c0.565,1.012,1.181,2.023,1.452,3.162c0.084,0.352,0.132,0.713,0.146,1.075c0.006,0.146-0.058,0.43-0.005,0.56
			c0.141,0.344,0.763,0.756,1.027,1.033c1.972,2.062,3.463,4.41,4.253,7.162c1.489,5.188,1.476,12.423-2.815,16.361
			c-2.139,1.963-5.032,2.947-7.855,3.391c-3.125,0.49-6.509,0.467-9.496-0.692c-2.625-1.02-4.39-2.986-5.988-5.231
			c-0.694-0.977-1.362-1.973-2.041-2.959c-0.328-0.477-0.452-0.433-0.962-0.592c-0.561-0.174-1.037-0.48-1.442-0.904
			c-0.933-0.976-1.471-2.303-2.073-3.486c-1.283-2.523-2.589-5.03-3.912-7.533c-2.077,2.353-4.19,4.805-5.265,7.801
			c-0.96,2.678-1.122,5.699-2.823,8.072c-1.795,2.502-4.735,3.848-6.877,5.999c-1.709,1.718-2.076,3.848-2.54,6.151
			c-0.695,3.449-2.442,6.248-4.555,9.026c-2.806,3.69-5.449,7.46-8.068,11.285c-2.44,3.565-4.937,7.085-7.504,10.56
			c-1.283,1.736-2.63,3.423-3.979,5.107c-0.517,0.645-0.436,0.69-0.335,1.435c0.052,0.382,0.067,0.769,0.05,1.153
			c-0.097,2.176-1.145,4.387-2.332,6.166c-0.358,0.538-0.811,0.945-0.927,1.585c-0.063,0.346-0.115,0.698-0.095,1.052
			c0.039,0.666,0.335,1.253,0.7,1.801c0.893,1.338,2.103,2.464,3.226,3.605c1.623,1.651,3.253,3.295,4.841,4.979
			c2.945,3.126,5.774,6.351,8.463,9.698c5.384,6.705,9.658,14.109,13.547,21.756c4.011,7.887,7.763,15.891,11.962,23.68
			c2.009,3.727,4.158,7.381,6.443,10.943c2.306,3.594,4.928,7.021,6.791,10.883c3.615,7.488,2.888,16.477-1.443,23.512
			c-2.261,3.67-5.061,6.984-7.552,10.496c-2.359,3.326-4.439,6.854-6.274,10.494c-3.853,7.646-7.15,15.617-9.829,23.752
			c-1.349,4.094-2.647,8.217-3.594,12.428c-0.925,4.113-1.247,8.396-2.395,12.451c-0.9,3.18-2.983,5.818-3.59,9.113
			c-0.736,3.998-0.572,8.107-0.739,12.152c-0.042,1.01-0.097,2.02-0.208,3.023c-0.046,0.418-0.102,0.836-0.175,1.25
			c-0.102,0.576,0.141,0.637,0.578,1.053c1.563,1.488,3.103,3.006,4.748,4.402c3.176,2.697,6.799,4.766,10.218,7.125
			c5.449,3.764,12.073,8.822,12.354,16.111c0.055,1.424-0.249,2.91-1.419,3.832c-1.639,1.293-4.178,1.291-6.135,1.236
			c-4.207-0.117-8.487-1.102-12.364-2.727c-3.99-1.67-7.509-4.221-11.203-6.43c-7.078-4.232-15.178-5.758-23.182-7.23
			C202.963,586.943,202.029,586.771,201.095,586.6z"/>
	</g>
	<g id="POLYLINE_36_">
		
			<rect x="399.385" y="600.582" fill="none" stroke="#E74C3C" stroke-width="3.5" stroke-linecap="round" stroke-linejoin="round" stroke-miterlimit="10" width="101.191" height="2.975"/>
	</g>
	<g>
		<g id="MTEXT_5_">
			<g>
				<g>
					<g>
						<path fill="#E74C3C" d="M572.162,245.613c-0.064-0.064-0.098-0.147-0.098-0.247v-8.865h-2.895c-0.1,0-0.183-0.032-0.248-0.098
							c-0.064-0.064-0.098-0.147-0.098-0.247v-0.585c0-0.11,0.033-0.197,0.098-0.263c0.065-0.065,0.148-0.098,0.248-0.098h7.199
							c0.11,0,0.195,0.032,0.256,0.098c0.06,0.065,0.09,0.152,0.09,0.263v0.585c0,0.1-0.033,0.183-0.098,0.247
							c-0.064,0.065-0.147,0.098-0.248,0.098h-2.879v8.865c0,0.1-0.035,0.183-0.105,0.247c-0.07,0.065-0.155,0.098-0.255,0.098
							h-0.72C572.31,245.711,572.227,245.679,572.162,245.613z"/>
						<path fill="#E74C3C" d="M577.412,244.931c-0.596-0.62-0.912-1.444-0.953-2.475l-0.015-0.646l0.015-0.645
							c0.041-1.03,0.363-1.854,0.969-2.475c0.604-0.62,1.447-0.931,2.527-0.931s1.922,0.311,2.527,0.931
							c0.604,0.62,0.928,1.444,0.967,2.475c0.02,0.22,0.03,0.435,0.03,0.645s-0.011,0.426-0.03,0.646
							c-0.039,1.03-0.357,1.854-0.952,2.475s-1.442,0.931-2.542,0.931C578.854,245.861,578.007,245.551,577.412,244.931z
							 M581.477,244.129c0.375-0.405,0.578-0.988,0.607-1.748c0.01-0.1,0.016-0.29,0.016-0.57c0-0.279-0.006-0.47-0.016-0.569
							c-0.029-0.76-0.232-1.343-0.607-1.748c-0.375-0.404-0.883-0.607-1.521-0.607c-0.641,0-1.148,0.203-1.523,0.607
							c-0.375,0.405-0.577,0.988-0.607,1.748l-0.015,0.569l0.015,0.57c0.03,0.76,0.232,1.343,0.607,1.748
							c0.375,0.404,0.883,0.607,1.523,0.607C580.594,244.736,581.102,244.533,581.477,244.129z"/>
						<path fill="#E74C3C" d="M585.482,248.471c-0.065-0.06-0.098-0.145-0.098-0.255v-9.96c0-0.109,0.032-0.195,0.098-0.255
							c0.064-0.06,0.146-0.09,0.247-0.09h0.63c0.11,0,0.195,0.03,0.256,0.09c0.06,0.06,0.09,0.146,0.09,0.255v0.66
							c0.58-0.77,1.404-1.155,2.475-1.155c1.05,0,1.838,0.333,2.362,0.998s0.803,1.513,0.833,2.542c0.01,0.11,0.015,0.28,0.015,0.51
							c0,0.23-0.005,0.4-0.015,0.511c-0.03,1.02-0.309,1.865-0.833,2.534c-0.524,0.671-1.312,1.006-2.362,1.006
							c-1.07,0-1.881-0.38-2.43-1.141v3.495c0,0.1-0.033,0.183-0.098,0.248c-0.065,0.064-0.148,0.097-0.248,0.097h-0.675
							C585.629,248.561,585.547,248.531,585.482,248.471z M590.47,244.016c0.33-0.449,0.51-1.04,0.54-1.77
							c0.01-0.1,0.015-0.245,0.015-0.436c0-1.92-0.71-2.88-2.13-2.88c-0.7,0-1.228,0.232-1.582,0.698
							c-0.355,0.465-0.543,1.012-0.562,1.642c-0.01,0.11-0.016,0.306-0.016,0.585c0,0.28,0.006,0.476,0.016,0.586
							c0.02,0.609,0.212,1.137,0.577,1.582c0.364,0.445,0.888,0.668,1.567,0.668C589.615,244.691,590.14,244.466,590.47,244.016z"/>
						<path fill="#E74C3C" d="M598.592,244.931c-0.596-0.62-0.912-1.444-0.953-2.475l-0.015-0.646l0.015-0.645
							c0.041-1.03,0.363-1.854,0.969-2.475c0.604-0.62,1.447-0.931,2.527-0.931s1.922,0.311,2.527,0.931
							c0.604,0.62,0.928,1.444,0.967,2.475c0.02,0.22,0.03,0.435,0.03,0.645s-0.011,0.426-0.03,0.646
							c-0.039,1.03-0.357,1.854-0.952,2.475s-1.442,0.931-2.542,0.931C600.034,245.861,599.187,245.551,598.592,244.931z
							 M602.656,244.129c0.375-0.405,0.578-0.988,0.607-1.748c0.01-0.1,0.016-0.29,0.016-0.57c0-0.279-0.006-0.47-0.016-0.569
							c-0.029-0.76-0.232-1.343-0.607-1.748c-0.375-0.404-0.883-0.607-1.521-0.607c-0.641,0-1.148,0.203-1.523,0.607
							c-0.375,0.405-0.577,0.988-0.607,1.748l-0.015,0.569l0.015,0.57c0.03,0.76,0.232,1.343,0.607,1.748
							c0.375,0.404,0.883,0.607,1.523,0.607C601.773,244.736,602.281,244.533,602.656,244.129z"/>
						<path fill="#E74C3C" d="M607.337,245.613c-0.065-0.064-0.098-0.147-0.098-0.247v-6.3h-1.29c-0.1,0-0.182-0.03-0.247-0.091
							c-0.065-0.06-0.098-0.14-0.098-0.239v-0.48c0-0.1,0.032-0.183,0.098-0.247c0.065-0.065,0.147-0.098,0.247-0.098h1.29v-0.75
							c0-0.811,0.198-1.438,0.593-1.883c0.395-0.444,1.043-0.667,1.942-0.667h0.886c0.1,0,0.182,0.032,0.246,0.097
							c0.065,0.065,0.098,0.148,0.098,0.248v0.479c0,0.101-0.032,0.181-0.098,0.24c-0.064,0.061-0.146,0.09-0.246,0.09h-0.855
							c-0.461,0-0.78,0.12-0.961,0.36c-0.18,0.24-0.27,0.61-0.27,1.11v0.675h1.936c0.1,0,0.182,0.032,0.247,0.098
							c0.065,0.064,0.098,0.147,0.098,0.247v0.48c0,0.1-0.032,0.18-0.098,0.239c-0.065,0.061-0.147,0.091-0.247,0.091h-1.936v6.3
							c0,0.1-0.032,0.183-0.098,0.247c-0.064,0.065-0.147,0.098-0.247,0.098h-0.646
							C607.484,245.711,607.402,245.679,607.337,245.613z"/>
						<path fill="#E74C3C" d="M616.471,245.523c-0.475-0.225-0.827-0.482-1.057-0.772c-0.23-0.29-0.346-0.53-0.346-0.72
							c0-0.101,0.035-0.178,0.105-0.232c0.07-0.056,0.145-0.083,0.225-0.083h0.631c0.06,0,0.107,0.01,0.143,0.03
							c0.034,0.02,0.082,0.065,0.143,0.135c0.229,0.28,0.486,0.5,0.771,0.66s0.668,0.24,1.148,0.24c0.539,0,0.972-0.101,1.297-0.301
							c0.324-0.199,0.488-0.489,0.488-0.869c0-0.25-0.07-0.45-0.211-0.601c-0.141-0.149-0.373-0.285-0.697-0.405
							c-0.325-0.119-0.808-0.249-1.447-0.39c-0.87-0.189-1.485-0.465-1.846-0.825c-0.359-0.359-0.539-0.824-0.539-1.395
							c0-0.37,0.109-0.728,0.33-1.072c0.219-0.346,0.547-0.625,0.982-0.841c0.435-0.215,0.952-0.322,1.553-0.322
							c0.629,0,1.166,0.105,1.611,0.315s0.78,0.455,1.006,0.734c0.225,0.28,0.337,0.516,0.337,0.705c0,0.09-0.032,0.165-0.097,0.226
							c-0.066,0.06-0.143,0.09-0.232,0.09h-0.57c-0.141,0-0.24-0.055-0.301-0.165c-0.17-0.189-0.312-0.338-0.428-0.442
							c-0.114-0.105-0.282-0.195-0.502-0.271c-0.221-0.074-0.495-0.112-0.824-0.112c-0.49,0-0.865,0.103-1.125,0.308
							c-0.261,0.205-0.391,0.478-0.391,0.817c0,0.21,0.055,0.388,0.165,0.532c0.11,0.146,0.319,0.28,0.63,0.405
							s0.77,0.253,1.38,0.383c0.95,0.2,1.622,0.485,2.018,0.854c0.396,0.37,0.593,0.846,0.593,1.426c0,0.43-0.123,0.819-0.367,1.17
							c-0.246,0.35-0.611,0.625-1.096,0.824c-0.484,0.2-1.062,0.301-1.732,0.301C617.529,245.861,616.946,245.748,616.471,245.523z"
							/>
						<path fill="#E74C3C" d="M623.281,245.613c-0.064-0.064-0.098-0.147-0.098-0.247v-9.96c0-0.11,0.033-0.195,0.098-0.255
							c0.064-0.061,0.147-0.091,0.248-0.091h0.689c0.11,0,0.195,0.03,0.256,0.091c0.06,0.06,0.09,0.145,0.09,0.255v3.495
							c0.289-0.37,0.632-0.653,1.027-0.848c0.395-0.195,0.882-0.293,1.462-0.293c0.96,0,1.708,0.308,2.243,0.923
							c0.534,0.615,0.803,1.428,0.803,2.438v4.245c0,0.1-0.033,0.183-0.098,0.247c-0.065,0.065-0.148,0.098-0.248,0.098h-0.705
							c-0.1,0-0.183-0.032-0.248-0.098c-0.064-0.064-0.097-0.147-0.097-0.247v-4.155c0-0.72-0.175-1.28-0.525-1.68
							c-0.351-0.4-0.854-0.601-1.515-0.601c-0.641,0-1.15,0.203-1.53,0.607c-0.38,0.405-0.569,0.963-0.569,1.673v4.155
							c0,0.1-0.033,0.183-0.098,0.247c-0.065,0.065-0.148,0.098-0.248,0.098h-0.689
							C623.429,245.711,623.346,245.679,623.281,245.613z"/>
						<path fill="#E74C3C" d="M632.896,244.931c-0.596-0.62-0.912-1.444-0.953-2.475l-0.015-0.646l0.015-0.645
							c0.041-1.03,0.363-1.854,0.969-2.475c0.604-0.62,1.447-0.931,2.527-0.931s1.922,0.311,2.527,0.931
							c0.604,0.62,0.928,1.444,0.967,2.475c0.02,0.22,0.03,0.435,0.03,0.645s-0.011,0.426-0.03,0.646
							c-0.039,1.03-0.357,1.854-0.952,2.475s-1.442,0.931-2.542,0.931C634.339,245.861,633.491,245.551,632.896,244.931z
							 M636.961,244.129c0.375-0.405,0.578-0.988,0.607-1.748c0.01-0.1,0.016-0.29,0.016-0.57c0-0.279-0.006-0.47-0.016-0.569
							c-0.029-0.76-0.232-1.343-0.607-1.748c-0.375-0.404-0.883-0.607-1.521-0.607c-0.641,0-1.148,0.203-1.523,0.607
							c-0.375,0.405-0.577,0.988-0.607,1.748l-0.015,0.569l0.015,0.57c0.03,0.76,0.232,1.343,0.607,1.748
							c0.375,0.404,0.883,0.607,1.523,0.607C636.078,244.736,636.586,244.533,636.961,244.129z"/>
						<path fill="#E74C3C" d="M641.559,244.938c-0.52-0.615-0.779-1.433-0.779-2.452v-4.23c0-0.1,0.032-0.183,0.098-0.247
							c0.064-0.065,0.146-0.098,0.247-0.098h0.69c0.1,0,0.182,0.032,0.247,0.098c0.065,0.064,0.098,0.147,0.098,0.247v4.155
							c0,1.52,0.659,2.28,1.979,2.28c0.641,0,1.148-0.203,1.523-0.608c0.375-0.404,0.562-0.962,0.562-1.672v-4.155
							c0-0.1,0.031-0.183,0.097-0.247c0.065-0.065,0.147-0.098,0.247-0.098h0.69c0.101,0,0.183,0.032,0.247,0.098
							c0.065,0.064,0.098,0.147,0.098,0.247v7.11c0,0.1-0.032,0.183-0.098,0.247c-0.064,0.065-0.146,0.098-0.247,0.098h-0.646
							c-0.1,0-0.182-0.032-0.246-0.098c-0.066-0.064-0.098-0.147-0.098-0.247v-0.675c-0.291,0.39-0.631,0.682-1.021,0.877
							s-0.886,0.293-1.485,0.293C642.814,245.861,642.078,245.554,641.559,244.938z"/>
						<path fill="#E74C3C" d="M649.966,245.613c-0.065-0.064-0.097-0.147-0.097-0.247v-9.96c0-0.11,0.031-0.195,0.097-0.255
							c0.065-0.061,0.147-0.091,0.247-0.091h0.66c0.1,0,0.183,0.033,0.248,0.098c0.064,0.065,0.098,0.147,0.098,0.248v9.96
							c0,0.1-0.033,0.183-0.098,0.247c-0.065,0.065-0.148,0.098-0.248,0.098h-0.66C650.113,245.711,650.031,245.679,649.966,245.613
							z"/>
						<path fill="#E74C3C" d="M653.956,244.841c-0.524-0.68-0.808-1.54-0.848-2.58l-0.015-0.45l0.015-0.449
							c0.04-1.03,0.325-1.888,0.855-2.573c0.53-0.685,1.314-1.027,2.354-1.027s1.851,0.37,2.431,1.11v-3.465
							c0-0.101,0.032-0.183,0.098-0.248c0.064-0.064,0.147-0.098,0.247-0.098h0.675c0.1,0,0.183,0.033,0.248,0.098
							c0.064,0.065,0.097,0.147,0.097,0.248v9.96c0,0.1-0.032,0.183-0.097,0.247c-0.065,0.065-0.148,0.098-0.248,0.098h-0.645
							c-0.101,0-0.181-0.032-0.24-0.098c-0.06-0.064-0.09-0.147-0.09-0.247v-0.646c-0.57,0.761-1.396,1.141-2.476,1.141
							C655.269,245.861,654.481,245.521,653.956,244.841z M658.179,243.993c0.35-0.465,0.54-1.018,0.57-1.657
							c0.01-0.11,0.015-0.3,0.015-0.57c0-0.279-0.005-0.475-0.015-0.585c-0.021-0.609-0.213-1.137-0.578-1.582
							s-0.888-0.668-1.567-0.668c-0.72,0-1.245,0.226-1.575,0.675c-0.329,0.45-0.51,1.041-0.54,1.771l-0.015,0.435
							c0,1.92,0.71,2.881,2.13,2.881C657.304,244.691,657.828,244.458,658.179,243.993z"/>
						<path fill="#E74C3C" d="M663.023,244.908c-0.609-0.635-0.944-1.502-1.005-2.603l-0.015-0.51l0.015-0.495
							c0.061-1.08,0.396-1.939,1.005-2.58c0.61-0.64,1.426-0.96,2.445-0.96c1.1,0,1.952,0.351,2.558,1.05
							c0.604,0.7,0.907,1.65,0.907,2.851v0.27c0,0.101-0.032,0.183-0.098,0.248c-0.064,0.064-0.147,0.098-0.247,0.098h-5.205v0.135
							c0.03,0.65,0.23,1.205,0.601,1.665c0.369,0.46,0.859,0.689,1.47,0.689c0.47,0,0.853-0.092,1.147-0.277
							c0.295-0.185,0.518-0.377,0.667-0.577c0.091-0.12,0.16-0.192,0.21-0.218c0.051-0.024,0.136-0.037,0.256-0.037h0.659
							c0.091,0,0.168,0.024,0.232,0.074c0.065,0.051,0.098,0.115,0.098,0.195c0,0.221-0.135,0.485-0.404,0.795
							c-0.271,0.311-0.653,0.578-1.147,0.803c-0.495,0.225-1.063,0.338-1.703,0.338
							C664.449,245.861,663.634,245.544,663.023,244.908z M667.569,241.256v-0.045c0-0.7-0.19-1.27-0.57-1.71s-0.891-0.66-1.53-0.66
							c-0.65,0-1.16,0.22-1.53,0.66s-0.555,1.01-0.555,1.71v0.045H667.569z"/>
						<path fill="#E74C3C" d="M670.861,245.613c-0.065-0.064-0.098-0.147-0.098-0.247v-7.096c0-0.1,0.032-0.185,0.098-0.255
							c0.064-0.069,0.147-0.104,0.247-0.104h0.63c0.11,0,0.197,0.032,0.263,0.098c0.065,0.064,0.098,0.152,0.098,0.262v0.66
							c0.41-0.68,1.104-1.02,2.085-1.02h0.585c0.11,0,0.195,0.03,0.255,0.09c0.061,0.06,0.09,0.146,0.09,0.255v0.555
							c0,0.101-0.029,0.183-0.09,0.248c-0.06,0.065-0.145,0.098-0.255,0.098h-0.854c-0.551,0-0.982,0.16-1.298,0.479
							c-0.315,0.32-0.473,0.755-0.473,1.306v4.425c0,0.1-0.035,0.183-0.104,0.247c-0.07,0.065-0.155,0.098-0.256,0.098h-0.675
							C671.009,245.711,670.926,245.679,670.861,245.613z"/>
					</g>
				</g>
			</g>
		</g>
		<g id="MTEXT_4_">
			<g>
				<g>
					<g>
						<path fill="#E74C3C" d="M572.162,345.275c-0.064-0.064-0.098-0.147-0.098-0.247v-8.865h-2.895c-0.1,0-0.183-0.032-0.248-0.098
							c-0.064-0.064-0.098-0.147-0.098-0.247v-0.585c0-0.11,0.033-0.197,0.098-0.263c0.065-0.065,0.148-0.098,0.248-0.098h7.199
							c0.11,0,0.195,0.032,0.256,0.098c0.06,0.065,0.09,0.152,0.09,0.263v0.585c0,0.1-0.033,0.183-0.098,0.247
							c-0.064,0.065-0.147,0.098-0.248,0.098h-2.879v8.865c0,0.1-0.035,0.183-0.105,0.247c-0.07,0.065-0.155,0.098-0.255,0.098
							h-0.72C572.31,345.373,572.227,345.341,572.162,345.275z"/>
						<path fill="#E74C3C" d="M577.412,344.593c-0.596-0.62-0.912-1.444-0.953-2.475l-0.015-0.646l0.015-0.645
							c0.041-1.03,0.363-1.854,0.969-2.475c0.604-0.62,1.447-0.931,2.527-0.931s1.922,0.311,2.527,0.931
							c0.604,0.62,0.928,1.444,0.967,2.475c0.02,0.22,0.03,0.435,0.03,0.645s-0.011,0.426-0.03,0.646
							c-0.039,1.03-0.357,1.854-0.952,2.475s-1.442,0.931-2.542,0.931C578.854,345.523,578.007,345.213,577.412,344.593z
							 M581.477,343.791c0.375-0.405,0.578-0.988,0.607-1.748c0.01-0.1,0.016-0.29,0.016-0.57c0-0.279-0.006-0.47-0.016-0.569
							c-0.029-0.76-0.232-1.343-0.607-1.748c-0.375-0.404-0.883-0.607-1.521-0.607c-0.641,0-1.148,0.203-1.523,0.607
							c-0.375,0.405-0.577,0.988-0.607,1.748l-0.015,0.569l0.015,0.57c0.03,0.76,0.232,1.343,0.607,1.748
							c0.375,0.404,0.883,0.607,1.523,0.607C580.594,344.398,581.102,344.195,581.477,343.791z"/>
						<path fill="#E74C3C" d="M585.482,348.133c-0.065-0.06-0.098-0.145-0.098-0.255v-9.96c0-0.109,0.032-0.195,0.098-0.255
							c0.064-0.06,0.146-0.09,0.247-0.09h0.63c0.11,0,0.195,0.03,0.256,0.09c0.06,0.06,0.09,0.146,0.09,0.255v0.66
							c0.58-0.77,1.404-1.155,2.475-1.155c1.05,0,1.838,0.333,2.362,0.998s0.803,1.513,0.833,2.542c0.01,0.11,0.015,0.28,0.015,0.51
							c0,0.23-0.005,0.4-0.015,0.511c-0.03,1.02-0.309,1.865-0.833,2.534c-0.524,0.671-1.312,1.006-2.362,1.006
							c-1.07,0-1.881-0.38-2.43-1.141v3.495c0,0.1-0.033,0.183-0.098,0.248c-0.065,0.064-0.148,0.097-0.248,0.097h-0.675
							C585.629,348.223,585.547,348.193,585.482,348.133z M590.47,343.678c0.33-0.449,0.51-1.04,0.54-1.77
							c0.01-0.1,0.015-0.245,0.015-0.436c0-1.92-0.71-2.88-2.13-2.88c-0.7,0-1.228,0.232-1.582,0.698
							c-0.355,0.465-0.543,1.012-0.562,1.642c-0.01,0.11-0.016,0.306-0.016,0.585c0,0.28,0.006,0.476,0.016,0.586
							c0.02,0.609,0.212,1.137,0.577,1.582c0.364,0.445,0.888,0.668,1.567,0.668C589.615,344.354,590.14,344.128,590.47,343.678z"/>
						<path fill="#E74C3C" d="M598.592,344.593c-0.596-0.62-0.912-1.444-0.953-2.475l-0.015-0.646l0.015-0.645
							c0.041-1.03,0.363-1.854,0.969-2.475c0.604-0.62,1.447-0.931,2.527-0.931s1.922,0.311,2.527,0.931
							c0.604,0.62,0.928,1.444,0.967,2.475c0.02,0.22,0.03,0.435,0.03,0.645s-0.011,0.426-0.03,0.646
							c-0.039,1.03-0.357,1.854-0.952,2.475s-1.442,0.931-2.542,0.931C600.034,345.523,599.187,345.213,598.592,344.593z
							 M602.656,343.791c0.375-0.405,0.578-0.988,0.607-1.748c0.01-0.1,0.016-0.29,0.016-0.57c0-0.279-0.006-0.47-0.016-0.569
							c-0.029-0.76-0.232-1.343-0.607-1.748c-0.375-0.404-0.883-0.607-1.521-0.607c-0.641,0-1.148,0.203-1.523,0.607
							c-0.375,0.405-0.577,0.988-0.607,1.748l-0.015,0.569l0.015,0.57c0.03,0.76,0.232,1.343,0.607,1.748
							c0.375,0.404,0.883,0.607,1.523,0.607C601.773,344.398,602.281,344.195,602.656,343.791z"/>
						<path fill="#E74C3C" d="M607.337,345.275c-0.065-0.064-0.098-0.147-0.098-0.247v-6.3h-1.29c-0.1,0-0.182-0.03-0.247-0.091
							c-0.065-0.06-0.098-0.14-0.098-0.239v-0.48c0-0.1,0.032-0.183,0.098-0.247c0.065-0.065,0.147-0.098,0.247-0.098h1.29v-0.75
							c0-0.811,0.198-1.438,0.593-1.883c0.395-0.444,1.043-0.667,1.942-0.667h0.886c0.1,0,0.182,0.032,0.246,0.097
							c0.065,0.065,0.098,0.148,0.098,0.248v0.479c0,0.101-0.032,0.181-0.098,0.24c-0.064,0.061-0.146,0.09-0.246,0.09h-0.855
							c-0.461,0-0.78,0.12-0.961,0.36c-0.18,0.24-0.27,0.61-0.27,1.11v0.675h1.936c0.1,0,0.182,0.032,0.247,0.098
							c0.065,0.064,0.098,0.147,0.098,0.247v0.48c0,0.1-0.032,0.18-0.098,0.239c-0.065,0.061-0.147,0.091-0.247,0.091h-1.936v6.3
							c0,0.1-0.032,0.183-0.098,0.247c-0.064,0.065-0.147,0.098-0.247,0.098h-0.646
							C607.484,345.373,607.402,345.341,607.337,345.275z"/>
						<path fill="#E74C3C" d="M615.661,348.133c-0.065-0.06-0.097-0.145-0.097-0.255v-9.96c0-0.109,0.031-0.195,0.097-0.255
							s0.147-0.09,0.247-0.09h0.631c0.109,0,0.195,0.03,0.255,0.09s0.09,0.146,0.09,0.255v0.66c0.58-0.77,1.405-1.155,2.476-1.155
							c1.049,0,1.837,0.333,2.361,0.998c0.525,0.665,0.803,1.513,0.833,2.542c0.01,0.11,0.015,0.28,0.015,0.51
							c0,0.23-0.005,0.4-0.015,0.511c-0.03,1.02-0.308,1.865-0.833,2.534c-0.524,0.671-1.312,1.006-2.361,1.006
							c-1.07,0-1.881-0.38-2.431-1.141v3.495c0,0.1-0.032,0.183-0.097,0.248c-0.066,0.064-0.148,0.097-0.248,0.097h-0.676
							C615.809,348.223,615.727,348.193,615.661,348.133z M620.648,343.678c0.33-0.449,0.51-1.04,0.541-1.77
							c0.01-0.1,0.014-0.245,0.014-0.436c0-1.92-0.709-2.88-2.129-2.88c-0.701,0-1.229,0.232-1.583,0.698
							c-0.354,0.465-0.542,1.012-0.562,1.642c-0.01,0.11-0.015,0.306-0.015,0.585c0,0.28,0.005,0.476,0.015,0.586
							c0.021,0.609,0.212,1.137,0.577,1.582s0.888,0.668,1.568,0.668C619.794,344.354,620.318,344.128,620.648,343.678z"/>
						<path fill="#E74C3C" d="M625.262,345.223c-0.416-0.199-0.745-0.472-0.99-0.817c-0.245-0.345-0.367-0.728-0.367-1.147
							c0-0.66,0.27-1.2,0.81-1.62s1.274-0.699,2.205-0.84l2.25-0.314v-0.436c0-1.029-0.595-1.545-1.785-1.545
							c-0.46,0-0.83,0.093-1.11,0.277c-0.279,0.186-0.484,0.403-0.614,0.652c-0.04,0.101-0.083,0.168-0.128,0.203
							s-0.107,0.053-0.188,0.053h-0.585c-0.09,0-0.167-0.033-0.232-0.098c-0.065-0.065-0.097-0.143-0.097-0.232
							c0-0.23,0.106-0.498,0.322-0.803c0.215-0.305,0.547-0.57,0.997-0.795c0.45-0.226,1-0.338,1.649-0.338
							c1.121,0,1.923,0.261,2.408,0.78c0.484,0.52,0.728,1.17,0.728,1.95v4.875c0,0.1-0.032,0.183-0.098,0.247
							c-0.065,0.065-0.147,0.098-0.247,0.098h-0.66c-0.101,0-0.18-0.032-0.24-0.098c-0.061-0.064-0.09-0.147-0.09-0.247v-0.66
							c-0.221,0.33-0.54,0.605-0.961,0.825c-0.42,0.22-0.959,0.33-1.619,0.33C626.129,345.523,625.676,345.423,625.262,345.223z
							 M628.539,343.783c0.42-0.43,0.63-1.055,0.63-1.875v-0.42l-1.755,0.255c-0.721,0.1-1.266,0.27-1.635,0.51
							c-0.371,0.24-0.555,0.54-0.555,0.9c0,0.41,0.166,0.725,0.502,0.944c0.335,0.221,0.732,0.33,1.192,0.33
							C627.579,344.428,628.119,344.213,628.539,343.783z"/>
						<path fill="#E74C3C" d="M632.807,345.275c-0.065-0.064-0.098-0.147-0.098-0.247v-7.11c0-0.1,0.032-0.183,0.098-0.247
							c0.064-0.065,0.147-0.098,0.248-0.098h0.645c0.109,0,0.195,0.03,0.255,0.09s0.09,0.146,0.09,0.255v0.66
							c0.3-0.37,0.647-0.655,1.042-0.855c0.396-0.199,0.888-0.3,1.479-0.3c0.959,0,1.705,0.308,2.234,0.923
							c0.53,0.615,0.795,1.428,0.795,2.438v4.245c0,0.1-0.032,0.183-0.098,0.247c-0.064,0.065-0.147,0.098-0.247,0.098h-0.69
							c-0.1,0-0.182-0.032-0.247-0.098c-0.065-0.064-0.098-0.147-0.098-0.247v-4.155c0-0.72-0.175-1.28-0.524-1.68
							c-0.351-0.4-0.851-0.601-1.5-0.601c-0.641,0-1.15,0.203-1.53,0.607c-0.38,0.405-0.57,0.963-0.57,1.673v4.155
							c0,0.1-0.032,0.183-0.097,0.247c-0.066,0.065-0.148,0.098-0.248,0.098h-0.689
							C632.954,345.373,632.871,345.341,632.807,345.275z"/>
						<path fill="#E74C3C" d="M642.338,342.748v-4.02h-1.184c-0.101,0-0.181-0.03-0.24-0.091c-0.061-0.06-0.09-0.14-0.09-0.239
							v-0.48c0-0.1,0.029-0.183,0.09-0.247c0.06-0.065,0.14-0.098,0.24-0.098h1.184v-2.505c0-0.101,0.031-0.183,0.091-0.248
							c0.06-0.064,0.14-0.098,0.239-0.098h0.66c0.1,0,0.183,0.033,0.248,0.098c0.064,0.065,0.098,0.147,0.098,0.248v2.505h1.859
							c0.1,0,0.183,0.032,0.248,0.098c0.064,0.064,0.098,0.147,0.098,0.247v0.48c0,0.1-0.033,0.18-0.098,0.239
							c-0.065,0.061-0.148,0.091-0.248,0.091h-1.859v3.914c0,0.511,0.082,0.896,0.247,1.155c0.165,0.261,0.448,0.391,0.848,0.391
							h0.915c0.1,0,0.18,0.032,0.24,0.097c0.06,0.065,0.09,0.148,0.09,0.248v0.495c0,0.1-0.03,0.183-0.09,0.247
							c-0.061,0.065-0.141,0.098-0.24,0.098h-1.02C643.113,345.373,642.338,344.498,642.338,342.748z"/>
						<path fill="#E74C3C" d="M648.406,345.186c-0.476-0.225-0.828-0.482-1.058-0.772c-0.23-0.29-0.345-0.53-0.345-0.72
							c0-0.101,0.034-0.178,0.104-0.232c0.069-0.056,0.146-0.083,0.226-0.083h0.629c0.061,0,0.107,0.01,0.143,0.03
							c0.035,0.02,0.083,0.065,0.143,0.135c0.23,0.28,0.488,0.5,0.773,0.66c0.284,0.16,0.667,0.24,1.146,0.24
							c0.541,0,0.973-0.101,1.298-0.301c0.325-0.199,0.487-0.489,0.487-0.869c0-0.25-0.07-0.45-0.21-0.601
							c-0.14-0.149-0.372-0.285-0.697-0.405c-0.325-0.119-0.808-0.249-1.447-0.39c-0.87-0.189-1.485-0.465-1.845-0.825
							c-0.36-0.359-0.541-0.824-0.541-1.395c0-0.37,0.11-0.728,0.33-1.072c0.221-0.346,0.548-0.625,0.982-0.841
							c0.436-0.215,0.953-0.322,1.553-0.322c0.631,0,1.168,0.105,1.613,0.315c0.444,0.21,0.779,0.455,1.005,0.734
							c0.225,0.28,0.337,0.516,0.337,0.705c0,0.09-0.032,0.165-0.098,0.226c-0.064,0.06-0.143,0.09-0.232,0.09h-0.57
							c-0.14,0-0.239-0.055-0.299-0.165c-0.171-0.189-0.313-0.338-0.428-0.442c-0.115-0.105-0.283-0.195-0.503-0.271
							c-0.22-0.074-0.495-0.112-0.825-0.112c-0.49,0-0.865,0.103-1.125,0.308s-0.39,0.478-0.39,0.817
							c0,0.21,0.055,0.388,0.165,0.532c0.109,0.146,0.32,0.28,0.63,0.405s0.771,0.253,1.38,0.383c0.95,0.2,1.622,0.485,2.018,0.854
							c0.395,0.37,0.593,0.846,0.593,1.426c0,0.43-0.123,0.819-0.368,1.17c-0.245,0.35-0.609,0.625-1.095,0.824
							c-0.485,0.2-1.062,0.301-1.732,0.301C649.463,345.523,648.881,345.41,648.406,345.186z"/>
					</g>
				</g>
			</g>
		</g>
		<g id="MTEXT_3_">
			<g>
				<g>
					<g>
						<path fill="#E74C3C" d="M567.514,487.275c-0.061-0.064-0.091-0.147-0.091-0.247v-9.795c0-0.11,0.03-0.197,0.091-0.263
							c0.06-0.065,0.139-0.098,0.239-0.098h0.72c0.11,0,0.197,0.032,0.263,0.098s0.098,0.152,0.098,0.263v4.17h5.22v-4.17
							c0-0.11,0.033-0.197,0.098-0.263s0.147-0.098,0.248-0.098h0.72c0.11,0,0.197,0.032,0.263,0.098
							c0.064,0.065,0.098,0.152,0.098,0.263v9.795c0,0.1-0.035,0.183-0.105,0.247c-0.07,0.065-0.155,0.098-0.255,0.098h-0.72
							c-0.101,0-0.184-0.032-0.248-0.098c-0.064-0.064-0.098-0.147-0.098-0.247v-4.32h-5.22v4.32c0,0.1-0.035,0.183-0.104,0.247
							c-0.07,0.065-0.156,0.098-0.256,0.098h-0.72C567.652,487.373,567.573,487.341,567.514,487.275z"/>
						<path fill="#E74C3C" d="M578.53,486.593c-0.595-0.62-0.913-1.444-0.952-2.475l-0.016-0.646l0.016-0.645
							c0.039-1.03,0.361-1.854,0.967-2.475s1.447-0.931,2.527-0.931s1.923,0.311,2.527,0.931c0.605,0.62,0.928,1.444,0.969,2.475
							c0.02,0.22,0.029,0.435,0.029,0.645s-0.01,0.426-0.029,0.646c-0.041,1.03-0.358,1.854-0.953,2.475
							c-0.596,0.62-1.442,0.931-2.543,0.931C579.973,487.523,579.125,487.213,578.53,486.593z M582.596,485.791
							c0.375-0.405,0.577-0.988,0.607-1.748c0.01-0.1,0.015-0.29,0.015-0.57c0-0.279-0.005-0.47-0.015-0.569
							c-0.03-0.76-0.232-1.343-0.607-1.748c-0.375-0.404-0.883-0.607-1.523-0.607c-0.64,0-1.146,0.203-1.521,0.607
							c-0.375,0.405-0.578,0.988-0.607,1.748l-0.016,0.569l0.016,0.57c0.029,0.76,0.232,1.343,0.607,1.748
							c0.375,0.404,0.882,0.607,1.521,0.607C581.713,486.398,582.221,486.195,582.596,485.791z"/>
						<path fill="#E74C3C" d="M586.6,487.275c-0.064-0.064-0.097-0.147-0.097-0.247v-9.96c0-0.11,0.032-0.195,0.097-0.255
							c0.065-0.061,0.148-0.091,0.248-0.091h0.66c0.1,0,0.182,0.033,0.248,0.098c0.064,0.065,0.098,0.147,0.098,0.248v9.96
							c0,0.1-0.033,0.183-0.098,0.247c-0.066,0.065-0.148,0.098-0.248,0.098h-0.66C586.748,487.373,586.665,487.341,586.6,487.275z"
							/>
						<path fill="#E74C3C" d="M590.215,487.275c-0.064-0.064-0.098-0.147-0.098-0.247v-9.96c0-0.11,0.033-0.195,0.098-0.255
							c0.064-0.061,0.147-0.091,0.248-0.091h0.66c0.1,0,0.182,0.033,0.247,0.098c0.065,0.065,0.098,0.147,0.098,0.248v9.96
							c0,0.1-0.032,0.183-0.098,0.247c-0.065,0.065-0.147,0.098-0.247,0.098h-0.66C590.362,487.373,590.279,487.341,590.215,487.275
							z"/>
						<path fill="#E74C3C" d="M594.34,486.593c-0.595-0.62-0.912-1.444-0.952-2.475l-0.015-0.646l0.015-0.645
							c0.04-1.03,0.362-1.854,0.968-2.475c0.604-0.62,1.447-0.931,2.527-0.931s1.922,0.311,2.527,0.931s0.928,1.444,0.968,2.475
							c0.02,0.22,0.03,0.435,0.03,0.645s-0.011,0.426-0.03,0.646c-0.04,1.03-0.358,1.854-0.952,2.475
							c-0.596,0.62-1.443,0.931-2.543,0.931S594.936,487.213,594.34,486.593z M598.405,485.791c0.375-0.405,0.577-0.988,0.607-1.748
							c0.01-0.1,0.015-0.29,0.015-0.57c0-0.279-0.005-0.47-0.015-0.569c-0.03-0.76-0.232-1.343-0.607-1.748
							c-0.375-0.404-0.883-0.607-1.522-0.607c-0.641,0-1.147,0.203-1.522,0.607c-0.375,0.405-0.577,0.988-0.607,1.748l-0.015,0.569
							l0.015,0.57c0.03,0.76,0.232,1.343,0.607,1.748c0.375,0.404,0.882,0.607,1.522,0.607
							C597.522,486.398,598.03,486.195,598.405,485.791z"/>
						<path fill="#E74C3C" d="M603.843,487.283c-0.069-0.061-0.125-0.155-0.165-0.285l-2.13-6.96l-0.03-0.15
							c0-0.09,0.03-0.165,0.09-0.225c0.061-0.06,0.135-0.09,0.226-0.09h0.614c0.101,0,0.184,0.027,0.248,0.082
							c0.064,0.056,0.103,0.107,0.113,0.158l1.694,5.729l1.8-5.655c0.02-0.079,0.064-0.152,0.135-0.217
							c0.07-0.065,0.166-0.098,0.285-0.098h0.48c0.119,0,0.215,0.032,0.285,0.098c0.069,0.064,0.114,0.138,0.135,0.217l1.8,5.655
							l1.694-5.729c0.011-0.051,0.048-0.103,0.113-0.158c0.064-0.055,0.147-0.082,0.248-0.082h0.614c0.091,0,0.165,0.03,0.226,0.09
							c0.06,0.06,0.09,0.135,0.09,0.225l-0.03,0.15l-2.13,6.96c-0.04,0.13-0.096,0.225-0.165,0.285
							c-0.07,0.06-0.175,0.09-0.315,0.09h-0.539c-0.261,0-0.431-0.125-0.511-0.375l-1.755-5.43l-1.755,5.43
							c-0.08,0.25-0.25,0.375-0.511,0.375h-0.539C604.018,487.373,603.912,487.343,603.843,487.283z"/>
						<path fill="#E74C3C" d="M618.768,486.383v0.646c0,0.1-0.033,0.183-0.098,0.247c-0.065,0.065-0.148,0.098-0.248,0.098h-0.63
							c-0.101,0-0.183-0.032-0.247-0.098c-0.065-0.064-0.098-0.147-0.098-0.247v-9.96c0-0.11,0.032-0.195,0.098-0.255
							c0.064-0.061,0.146-0.091,0.247-0.091h0.675c0.1,0,0.183,0.033,0.248,0.098c0.064,0.065,0.098,0.147,0.098,0.248v3.465
							c0.56-0.74,1.369-1.11,2.43-1.11c1.05,0,1.838,0.343,2.362,1.027c0.524,0.686,0.803,1.543,0.833,2.573
							c0.01,0.109,0.015,0.26,0.015,0.449c0,0.19-0.005,0.341-0.015,0.45c-0.03,1.03-0.309,1.888-0.833,2.572
							c-0.524,0.686-1.312,1.028-2.362,1.028C620.162,487.523,619.337,487.144,618.768,486.383z M622.532,485.678
							c0.33-0.449,0.51-1.04,0.54-1.77c0.01-0.1,0.015-0.245,0.015-0.436c0-1.92-0.71-2.88-2.13-2.88
							c-0.68,0-1.203,0.223-1.567,0.668c-0.365,0.445-0.558,0.973-0.577,1.582c-0.01,0.11-0.016,0.306-0.016,0.585
							c0,0.271,0.006,0.46,0.016,0.57c0.02,0.64,0.207,1.192,0.562,1.657c0.354,0.465,0.882,0.698,1.582,0.698
							C621.678,486.354,622.202,486.128,622.532,485.678z"/>
						<path fill="#E74C3C" d="M626.987,486.57c-0.61-0.635-0.944-1.502-1.005-2.603l-0.016-0.51l0.016-0.495
							c0.061-1.08,0.395-1.939,1.005-2.58c0.61-0.64,1.425-0.96,2.444-0.96c1.101,0,1.953,0.351,2.559,1.05
							c0.604,0.7,0.907,1.65,0.907,2.851v0.27c0,0.101-0.032,0.183-0.098,0.248c-0.065,0.064-0.147,0.098-0.247,0.098h-5.205v0.135
							c0.029,0.65,0.229,1.205,0.6,1.665c0.369,0.46,0.859,0.689,1.471,0.689c0.469,0,0.852-0.092,1.146-0.277
							c0.295-0.185,0.518-0.377,0.668-0.577c0.09-0.12,0.16-0.192,0.21-0.218c0.05-0.024,0.135-0.037,0.255-0.037h0.66
							c0.09,0,0.167,0.024,0.232,0.074c0.064,0.051,0.098,0.115,0.098,0.195c0,0.221-0.135,0.485-0.405,0.795
							c-0.271,0.311-0.652,0.578-1.147,0.803s-1.062,0.338-1.703,0.338C628.412,487.523,627.598,487.206,626.987,486.57z
							 M631.532,482.918v-0.045c0-0.7-0.19-1.27-0.569-1.71c-0.381-0.44-0.891-0.66-1.531-0.66c-0.649,0-1.16,0.22-1.529,0.66
							c-0.37,0.44-0.555,1.01-0.555,1.71v0.045H631.532z"/>
						<path fill="#E74C3C" d="M634.84,487.275c-0.065-0.064-0.098-0.147-0.098-0.247v-9.96c0-0.11,0.032-0.195,0.098-0.255
							c0.064-0.061,0.146-0.091,0.247-0.091h0.66c0.1,0,0.183,0.033,0.247,0.098c0.065,0.065,0.098,0.147,0.098,0.248v9.96
							c0,0.1-0.032,0.183-0.098,0.247c-0.064,0.065-0.147,0.098-0.247,0.098h-0.66C634.986,487.373,634.904,487.341,634.84,487.275z
							"/>
						<path fill="#E74C3C" d="M638.965,486.593c-0.596-0.62-0.912-1.444-0.953-2.475l-0.015-0.646l0.015-0.645
							c0.041-1.03,0.363-1.854,0.969-2.475c0.604-0.62,1.447-0.931,2.527-0.931s1.922,0.311,2.527,0.931
							c0.604,0.62,0.928,1.444,0.967,2.475c0.02,0.22,0.03,0.435,0.03,0.645s-0.011,0.426-0.03,0.646
							c-0.039,1.03-0.357,1.854-0.952,2.475s-1.442,0.931-2.542,0.931C640.407,487.523,639.56,487.213,638.965,486.593z
							 M643.029,485.791c0.375-0.405,0.578-0.988,0.607-1.748c0.01-0.1,0.016-0.29,0.016-0.57c0-0.279-0.006-0.47-0.016-0.569
							c-0.029-0.76-0.232-1.343-0.607-1.748c-0.375-0.404-0.883-0.607-1.521-0.607c-0.641,0-1.148,0.203-1.523,0.607
							c-0.375,0.405-0.577,0.988-0.607,1.748l-0.015,0.569l0.015,0.57c0.03,0.76,0.232,1.343,0.607,1.748
							c0.375,0.404,0.883,0.607,1.523,0.607C642.146,486.398,642.654,486.195,643.029,485.791z"/>
						<path fill="#E74C3C" d="M648.467,487.283c-0.07-0.061-0.125-0.155-0.165-0.285l-2.13-6.96l-0.029-0.15
							c0-0.09,0.029-0.165,0.09-0.225c0.06-0.06,0.135-0.09,0.225-0.09h0.615c0.1,0,0.182,0.027,0.247,0.082
							c0.065,0.056,0.103,0.107,0.112,0.158l1.695,5.729l1.8-5.655c0.021-0.079,0.065-0.152,0.135-0.217
							c0.07-0.065,0.165-0.098,0.285-0.098h0.48c0.12,0,0.215,0.032,0.285,0.098c0.069,0.064,0.114,0.138,0.135,0.217l1.8,5.655
							l1.695-5.729c0.01-0.051,0.047-0.103,0.112-0.158c0.064-0.055,0.147-0.082,0.247-0.082h0.615c0.09,0,0.165,0.03,0.226,0.09
							c0.06,0.06,0.09,0.135,0.09,0.225l-0.03,0.15l-2.13,6.96c-0.04,0.13-0.096,0.225-0.165,0.285
							c-0.07,0.06-0.175,0.09-0.315,0.09h-0.54c-0.26,0-0.43-0.125-0.51-0.375l-1.755-5.43l-1.755,5.43
							c-0.08,0.25-0.25,0.375-0.51,0.375h-0.541C648.642,487.373,648.537,487.343,648.467,487.283z"/>
						<path fill="#E74C3C" d="M567.902,500.348v-4.02h-1.184c-0.101,0-0.181-0.03-0.24-0.091c-0.061-0.06-0.09-0.14-0.09-0.239
							v-0.48c0-0.1,0.029-0.183,0.09-0.247c0.06-0.065,0.14-0.098,0.24-0.098h1.184v-2.505c0-0.101,0.031-0.183,0.091-0.248
							c0.06-0.064,0.14-0.098,0.239-0.098h0.66c0.1,0,0.183,0.033,0.248,0.098c0.064,0.065,0.098,0.147,0.098,0.248v2.505h1.859
							c0.1,0,0.183,0.032,0.248,0.098c0.064,0.064,0.098,0.147,0.098,0.247v0.48c0,0.1-0.033,0.18-0.098,0.239
							c-0.065,0.061-0.148,0.091-0.248,0.091h-1.859v3.914c0,0.511,0.082,0.896,0.247,1.155c0.165,0.261,0.448,0.391,0.848,0.391
							h0.915c0.1,0,0.18,0.032,0.24,0.097c0.06,0.065,0.09,0.148,0.09,0.248v0.495c0,0.1-0.03,0.183-0.09,0.247
							c-0.061,0.065-0.141,0.098-0.24,0.098h-1.02C568.678,502.973,567.902,502.098,567.902,500.348z"/>
						<path fill="#E74C3C" d="M573.16,502.875c-0.064-0.064-0.098-0.147-0.098-0.247v-9.96c0-0.11,0.033-0.195,0.098-0.255
							c0.064-0.061,0.147-0.091,0.248-0.091h0.689c0.11,0,0.195,0.03,0.256,0.091c0.06,0.06,0.09,0.145,0.09,0.255v3.495
							c0.289-0.37,0.632-0.653,1.027-0.848c0.395-0.195,0.882-0.293,1.462-0.293c0.96,0,1.708,0.308,2.243,0.923
							c0.534,0.615,0.803,1.428,0.803,2.438v4.245c0,0.1-0.033,0.183-0.098,0.247c-0.065,0.065-0.148,0.098-0.248,0.098h-0.705
							c-0.1,0-0.183-0.032-0.248-0.098c-0.064-0.064-0.097-0.147-0.097-0.247v-4.155c0-0.72-0.175-1.28-0.525-1.68
							c-0.351-0.4-0.854-0.601-1.515-0.601c-0.641,0-1.15,0.203-1.53,0.607c-0.38,0.405-0.569,0.963-0.569,1.673v4.155
							c0,0.1-0.033,0.183-0.098,0.247c-0.065,0.065-0.148,0.098-0.248,0.098h-0.689C573.308,502.973,573.225,502.94,573.16,502.875z
							"/>
						<path fill="#E74C3C" d="M582.798,502.17c-0.61-0.635-0.944-1.502-1.005-2.603l-0.016-0.51l0.016-0.495
							c0.061-1.08,0.395-1.939,1.005-2.58c0.61-0.64,1.425-0.96,2.444-0.96c1.101,0,1.953,0.351,2.559,1.05
							c0.604,0.7,0.907,1.65,0.907,2.851v0.27c0,0.101-0.032,0.183-0.098,0.248c-0.065,0.064-0.147,0.098-0.247,0.098h-5.205v0.135
							c0.029,0.65,0.229,1.205,0.6,1.665c0.369,0.46,0.859,0.689,1.471,0.689c0.469,0,0.852-0.092,1.146-0.277
							c0.295-0.185,0.518-0.377,0.668-0.577c0.09-0.12,0.16-0.192,0.21-0.218c0.05-0.024,0.135-0.037,0.255-0.037h0.66
							c0.09,0,0.167,0.024,0.232,0.074c0.064,0.051,0.098,0.115,0.098,0.195c0,0.221-0.135,0.485-0.405,0.795
							c-0.271,0.311-0.652,0.578-1.147,0.803s-1.062,0.338-1.703,0.338C584.223,503.123,583.408,502.806,582.798,502.17z
							 M587.343,498.518v-0.045c0-0.7-0.19-1.27-0.569-1.71c-0.381-0.44-0.891-0.66-1.531-0.66c-0.649,0-1.16,0.22-1.529,0.66
							c-0.37,0.44-0.555,1.01-0.555,1.71v0.045H587.343z"/>
						<path fill="#E74C3C" d="M594.34,502.875c-0.064-0.064-0.098-0.147-0.098-0.247v-9.96c0-0.11,0.033-0.195,0.098-0.255
							c0.064-0.061,0.147-0.091,0.248-0.091h0.645c0.1,0,0.183,0.033,0.248,0.098c0.064,0.065,0.098,0.147,0.098,0.248v5.234
							l3-2.475c0.149-0.11,0.254-0.18,0.314-0.21s0.154-0.045,0.285-0.045h0.75c0.09,0,0.162,0.027,0.217,0.082
							c0.055,0.056,0.083,0.133,0.083,0.232c0,0.091-0.056,0.186-0.165,0.285l-3.51,2.88l3.885,3.721
							c0.109,0.109,0.165,0.205,0.165,0.284c0,0.091-0.028,0.165-0.083,0.226c-0.055,0.06-0.127,0.09-0.217,0.09h-0.735
							c-0.149,0-0.257-0.015-0.322-0.045s-0.157-0.1-0.277-0.21l-3.39-3.21v3.12c0,0.1-0.033,0.183-0.098,0.247
							c-0.065,0.065-0.148,0.098-0.248,0.098h-0.645C594.487,502.973,594.404,502.94,594.34,502.875z"/>
						<path fill="#E74C3C" d="M602.02,502.875c-0.064-0.064-0.098-0.147-0.098-0.247v-7.11c0-0.1,0.033-0.183,0.098-0.247
							c0.065-0.065,0.148-0.098,0.248-0.098h0.645c0.11,0,0.195,0.03,0.256,0.09c0.06,0.06,0.09,0.146,0.09,0.255v0.66
							c0.299-0.37,0.646-0.655,1.042-0.855c0.396-0.199,0.888-0.3,1.478-0.3c0.96,0,1.705,0.308,2.234,0.923
							c0.531,0.615,0.795,1.428,0.795,2.438v4.245c0,0.1-0.031,0.183-0.097,0.247c-0.065,0.065-0.147,0.098-0.247,0.098h-0.69
							c-0.101,0-0.183-0.032-0.247-0.098c-0.066-0.064-0.098-0.147-0.098-0.247v-4.155c0-0.72-0.176-1.28-0.525-1.68
							c-0.35-0.4-0.85-0.601-1.5-0.601c-0.641,0-1.15,0.203-1.529,0.607c-0.381,0.405-0.57,0.963-0.57,1.673v4.155
							c0,0.1-0.033,0.183-0.098,0.247c-0.065,0.065-0.148,0.098-0.248,0.098h-0.689C602.168,502.973,602.085,502.94,602.02,502.875z
							"/>
						<path fill="#E74C3C" d="M611.627,502.17c-0.609-0.635-0.945-1.502-1.005-2.603l-0.015-0.51l0.015-0.495
							c0.06-1.08,0.396-1.939,1.005-2.58c0.609-0.64,1.425-0.96,2.445-0.96c1.1,0,1.952,0.351,2.557,1.05
							c0.605,0.7,0.908,1.65,0.908,2.851v0.27c0,0.101-0.033,0.183-0.098,0.248c-0.064,0.064-0.147,0.098-0.248,0.098h-5.205v0.135
							c0.031,0.65,0.23,1.205,0.601,1.665s0.86,0.689,1.47,0.689c0.471,0,0.853-0.092,1.148-0.277
							c0.295-0.185,0.518-0.377,0.667-0.577c0.09-0.12,0.159-0.192,0.21-0.218c0.05-0.024,0.135-0.037,0.255-0.037h0.66
							c0.09,0,0.167,0.024,0.232,0.074c0.065,0.051,0.098,0.115,0.098,0.195c0,0.221-0.136,0.485-0.405,0.795
							c-0.27,0.311-0.652,0.578-1.147,0.803s-1.062,0.338-1.702,0.338C613.052,503.123,612.236,502.806,611.627,502.17z
							 M616.172,498.518v-0.045c0-0.7-0.189-1.27-0.57-1.71c-0.38-0.44-0.89-0.66-1.529-0.66c-0.65,0-1.16,0.22-1.53,0.66
							s-0.556,1.01-0.556,1.71v0.045H616.172z"/>
						<path fill="#E74C3C" d="M620.012,502.17c-0.609-0.635-0.945-1.502-1.005-2.603l-0.015-0.51l0.015-0.495
							c0.06-1.08,0.396-1.939,1.005-2.58c0.609-0.64,1.425-0.96,2.445-0.96c1.1,0,1.952,0.351,2.557,1.05
							c0.605,0.7,0.908,1.65,0.908,2.851v0.27c0,0.101-0.033,0.183-0.098,0.248c-0.064,0.064-0.147,0.098-0.248,0.098h-5.205v0.135
							c0.031,0.65,0.23,1.205,0.601,1.665s0.86,0.689,1.47,0.689c0.471,0,0.853-0.092,1.148-0.277
							c0.295-0.185,0.518-0.377,0.667-0.577c0.09-0.12,0.159-0.192,0.21-0.218c0.05-0.024,0.135-0.037,0.255-0.037h0.66
							c0.09,0,0.167,0.024,0.232,0.074c0.065,0.051,0.098,0.115,0.098,0.195c0,0.221-0.136,0.485-0.405,0.795
							c-0.27,0.311-0.652,0.578-1.147,0.803s-1.062,0.338-1.702,0.338C621.437,503.123,620.621,502.806,620.012,502.17z
							 M624.557,498.518v-0.045c0-0.7-0.189-1.27-0.57-1.71c-0.38-0.44-0.89-0.66-1.529-0.66c-0.65,0-1.16,0.22-1.53,0.66
							s-0.556,1.01-0.556,1.71v0.045H624.557z"/>
						<path fill="#E74C3C" d="M628.367,502.215c-0.6-0.604-0.915-1.452-0.945-2.542l-0.016-0.601l0.016-0.6
							c0.03-1.09,0.346-1.938,0.945-2.543c0.6-0.604,1.435-0.907,2.505-0.907c0.72,0,1.327,0.128,1.822,0.383
							s0.864,0.572,1.11,0.952c0.244,0.381,0.377,0.761,0.397,1.141c0.01,0.09-0.022,0.17-0.098,0.239
							c-0.075,0.07-0.157,0.105-0.247,0.105h-0.66c-0.101,0-0.176-0.022-0.225-0.067c-0.051-0.045-0.101-0.128-0.15-0.248
							c-0.18-0.489-0.428-0.837-0.742-1.042c-0.315-0.205-0.713-0.308-1.193-0.308c-0.63,0-1.13,0.195-1.5,0.585
							c-0.369,0.39-0.57,0.985-0.6,1.785l-0.016,0.524l0.016,0.525c0.029,0.8,0.23,1.395,0.6,1.785c0.37,0.39,0.87,0.585,1.5,0.585
							c0.49,0,0.891-0.103,1.2-0.308s0.556-0.553,0.735-1.043c0.05-0.119,0.1-0.202,0.15-0.247c0.049-0.045,0.124-0.067,0.225-0.067
							h0.66c0.09,0,0.172,0.035,0.247,0.104c0.075,0.07,0.107,0.15,0.098,0.24c-0.021,0.37-0.153,0.745-0.397,1.125
							c-0.246,0.38-0.615,0.7-1.11,0.96s-1.103,0.391-1.822,0.391C629.802,503.123,628.967,502.82,628.367,502.215z"/>
						<path fill="#E74C3C" d="M636.805,502.822c-0.416-0.199-0.746-0.472-0.99-0.817c-0.246-0.345-0.368-0.728-0.368-1.147
							c0-0.66,0.271-1.2,0.81-1.62c0.541-0.42,1.275-0.699,2.205-0.84l2.25-0.314v-0.436c0-1.029-0.595-1.545-1.785-1.545
							c-0.459,0-0.83,0.093-1.109,0.277c-0.279,0.186-0.484,0.403-0.615,0.652c-0.039,0.101-0.082,0.168-0.127,0.203
							s-0.107,0.053-0.188,0.053h-0.586c-0.09,0-0.167-0.033-0.232-0.098c-0.064-0.065-0.097-0.143-0.097-0.232
							c0-0.23,0.106-0.498,0.322-0.803c0.215-0.305,0.548-0.57,0.997-0.795c0.451-0.226,1-0.338,1.65-0.338
							c1.12,0,1.922,0.261,2.408,0.78c0.484,0.52,0.727,1.17,0.727,1.95v4.875c0,0.1-0.032,0.183-0.098,0.247
							c-0.064,0.065-0.146,0.098-0.247,0.098h-0.66c-0.101,0-0.18-0.032-0.239-0.098c-0.061-0.064-0.09-0.147-0.09-0.247v-0.66
							c-0.221,0.33-0.541,0.605-0.961,0.825s-0.96,0.33-1.619,0.33C637.672,503.123,637.219,503.022,636.805,502.822z
							 M640.082,501.383c0.42-0.43,0.629-1.055,0.629-1.875v-0.42l-1.754,0.255c-0.721,0.1-1.266,0.27-1.636,0.51
							s-0.555,0.54-0.555,0.9c0,0.41,0.167,0.725,0.503,0.944c0.334,0.221,0.732,0.33,1.191,0.33
							C639.121,502.027,639.662,501.812,640.082,501.383z"/>
						<path fill="#E74C3C" d="M644.363,505.732c-0.064-0.06-0.097-0.145-0.097-0.255v-9.96c0-0.109,0.032-0.195,0.097-0.255
							c0.065-0.06,0.148-0.09,0.248-0.09h0.631c0.109,0,0.194,0.03,0.254,0.09c0.061,0.06,0.09,0.146,0.09,0.255v0.66
							c0.58-0.77,1.405-1.155,2.476-1.155c1.05,0,1.837,0.333,2.363,0.998c0.523,0.665,0.801,1.513,0.832,2.542
							c0.01,0.11,0.014,0.28,0.014,0.51c0,0.23-0.004,0.4-0.014,0.511c-0.031,1.02-0.309,1.865-0.832,2.534
							c-0.526,0.671-1.313,1.006-2.363,1.006c-1.07,0-1.88-0.38-2.431-1.141v3.495c0,0.1-0.031,0.183-0.097,0.248
							c-0.065,0.064-0.147,0.097-0.247,0.097h-0.676C644.512,505.822,644.429,505.793,644.363,505.732z M649.352,501.277
							c0.33-0.449,0.51-1.04,0.54-1.77c0.01-0.1,0.015-0.245,0.015-0.436c0-1.92-0.71-2.88-2.13-2.88
							c-0.7,0-1.228,0.232-1.583,0.698c-0.354,0.465-0.542,1.012-0.562,1.642c-0.01,0.11-0.014,0.306-0.014,0.585
							c0,0.28,0.004,0.476,0.014,0.586c0.021,0.609,0.213,1.137,0.578,1.582s0.887,0.668,1.567,0.668
							C648.496,501.953,649.021,501.728,649.352,501.277z"/>
					</g>
				</g>
			</g>
		</g>
		<g id="MTEXT_2_">
			<g>
				<g>
					<g>
						<path fill="#E74C3C" d="M569.867,295.812c-0.064-0.064-0.098-0.147-0.098-0.247v-9.795c0-0.11,0.03-0.197,0.09-0.263
							c0.061-0.065,0.145-0.098,0.256-0.098h0.705c0.18,0,0.305,0.075,0.375,0.225l3.194,6.136l3.226-6.136
							c0.08-0.149,0.199-0.225,0.359-0.225h0.705c0.109,0,0.195,0.032,0.255,0.098s0.091,0.152,0.091,0.263v9.795
							c0,0.1-0.033,0.183-0.098,0.247c-0.066,0.065-0.148,0.098-0.248,0.098h-0.689c-0.101,0-0.181-0.032-0.24-0.098
							c-0.061-0.064-0.09-0.147-0.09-0.247v-7.455l-2.565,4.965c-0.101,0.21-0.261,0.315-0.479,0.315h-0.451
							c-0.209,0-0.369-0.105-0.479-0.315l-2.55-4.965v7.455c0,0.1-0.033,0.183-0.098,0.247c-0.064,0.065-0.147,0.098-0.248,0.098
							h-0.674C570.015,295.91,569.932,295.878,569.867,295.812z"/>
						<path fill="#E74C3C" d="M581.447,286.543c-0.065-0.065-0.098-0.147-0.098-0.248v-0.779c0-0.101,0.032-0.186,0.098-0.256
							c0.064-0.069,0.147-0.104,0.248-0.104h0.885c0.1,0,0.185,0.035,0.255,0.104c0.069,0.07,0.104,0.155,0.104,0.256v0.779
							c0,0.101-0.035,0.183-0.104,0.248c-0.07,0.064-0.155,0.098-0.255,0.098h-0.885
							C581.595,286.641,581.512,286.607,581.447,286.543z M581.567,295.812c-0.065-0.064-0.098-0.147-0.098-0.247v-7.11
							c0-0.1,0.032-0.183,0.098-0.247c0.065-0.065,0.147-0.098,0.247-0.098h0.66c0.1,0,0.183,0.032,0.248,0.098
							c0.064,0.064,0.098,0.147,0.098,0.247v7.11c0,0.1-0.033,0.183-0.098,0.247c-0.065,0.065-0.148,0.098-0.248,0.098h-0.66
							C581.715,295.91,581.633,295.878,581.567,295.812z"/>
						<path fill="#E74C3C" d="M585.557,295.04c-0.525-0.68-0.808-1.54-0.848-2.58l-0.015-0.45l0.015-0.449
							c0.04-1.03,0.325-1.888,0.855-2.573c0.529-0.685,1.314-1.027,2.355-1.027c1.039,0,1.85,0.37,2.43,1.11v-3.465
							c0-0.101,0.032-0.183,0.098-0.248c0.064-0.064,0.146-0.098,0.247-0.098h0.675c0.1,0,0.183,0.033,0.248,0.098
							c0.064,0.065,0.098,0.147,0.098,0.248v9.96c0,0.1-0.033,0.183-0.098,0.247c-0.065,0.065-0.148,0.098-0.248,0.098h-0.645
							c-0.101,0-0.18-0.032-0.24-0.098c-0.061-0.064-0.09-0.147-0.09-0.247v-0.646c-0.57,0.761-1.395,1.141-2.475,1.141
							C586.869,296.061,586.082,295.721,585.557,295.04z M589.779,294.192c0.35-0.465,0.54-1.018,0.57-1.657
							c0.01-0.11,0.015-0.3,0.015-0.57c0-0.279-0.005-0.475-0.015-0.585c-0.021-0.609-0.213-1.137-0.578-1.582
							s-0.887-0.668-1.567-0.668c-0.72,0-1.245,0.226-1.575,0.675c-0.33,0.45-0.51,1.041-0.539,1.771l-0.016,0.435
							c0,1.92,0.71,2.881,2.13,2.881C588.904,294.891,589.43,294.657,589.779,294.192z"/>
						<path fill="#E74C3C" d="M594.092,298.67c-0.064-0.06-0.098-0.145-0.098-0.255v-9.96c0-0.109,0.033-0.195,0.098-0.255
							s0.147-0.09,0.248-0.09h0.63c0.11,0,0.194,0.03,0.255,0.09s0.09,0.146,0.09,0.255v0.66c0.58-0.77,1.404-1.155,2.475-1.155
							c1.051,0,1.838,0.333,2.363,0.998c0.524,0.665,0.803,1.513,0.832,2.542c0.01,0.11,0.016,0.28,0.016,0.51
							c0,0.23-0.006,0.4-0.016,0.511c-0.029,1.02-0.308,1.865-0.832,2.534c-0.525,0.671-1.312,1.006-2.363,1.006
							c-1.07,0-1.88-0.38-2.43-1.141v3.495c0,0.1-0.032,0.183-0.098,0.248c-0.064,0.064-0.147,0.097-0.247,0.097h-0.675
							C594.239,298.76,594.156,298.73,594.092,298.67z M599.08,294.215c0.33-0.449,0.51-1.04,0.539-1.77
							c0.01-0.1,0.016-0.245,0.016-0.436c0-1.92-0.711-2.88-2.131-2.88c-0.699,0-1.227,0.232-1.582,0.698
							c-0.355,0.465-0.543,1.012-0.562,1.642c-0.01,0.11-0.015,0.306-0.015,0.585c0,0.28,0.005,0.476,0.015,0.586
							c0.02,0.609,0.213,1.137,0.578,1.582c0.364,0.445,0.887,0.668,1.566,0.668C598.225,294.891,598.75,294.665,599.08,294.215z"/>
						<path fill="#E74C3C" d="M603.512,295.13c-0.596-0.62-0.912-1.444-0.953-2.475l-0.015-0.646l0.015-0.645
							c0.041-1.03,0.363-1.854,0.969-2.475c0.604-0.62,1.447-0.931,2.527-0.931s1.922,0.311,2.527,0.931
							c0.604,0.62,0.928,1.444,0.967,2.475c0.02,0.22,0.03,0.435,0.03,0.645s-0.011,0.426-0.03,0.646
							c-0.039,1.03-0.357,1.854-0.952,2.475s-1.442,0.931-2.542,0.931C604.954,296.061,604.106,295.75,603.512,295.13z
							 M607.576,294.328c0.375-0.405,0.578-0.988,0.607-1.748c0.01-0.1,0.016-0.29,0.016-0.57c0-0.279-0.006-0.47-0.016-0.569
							c-0.029-0.76-0.232-1.343-0.607-1.748c-0.375-0.404-0.883-0.607-1.521-0.607c-0.641,0-1.148,0.203-1.523,0.607
							c-0.375,0.405-0.577,0.988-0.607,1.748l-0.015,0.569l0.015,0.57c0.03,0.76,0.232,1.343,0.607,1.748
							c0.375,0.404,0.883,0.607,1.523,0.607C606.693,294.936,607.201,294.732,607.576,294.328z"/>
						<path fill="#E74C3C" d="M611.447,286.543c-0.066-0.065-0.098-0.147-0.098-0.248v-0.779c0-0.101,0.031-0.186,0.098-0.256
							c0.064-0.069,0.146-0.104,0.247-0.104h0.885c0.101,0,0.185,0.035,0.255,0.104c0.07,0.07,0.105,0.155,0.105,0.256v0.779
							c0,0.101-0.035,0.183-0.105,0.248c-0.07,0.064-0.154,0.098-0.255,0.098h-0.885
							C611.594,286.641,611.512,286.607,611.447,286.543z M611.566,295.812c-0.064-0.064-0.098-0.147-0.098-0.247v-7.11
							c0-0.1,0.033-0.183,0.098-0.247c0.065-0.065,0.148-0.098,0.248-0.098h0.66c0.1,0,0.182,0.032,0.247,0.098
							c0.065,0.064,0.098,0.147,0.098,0.247v7.11c0,0.1-0.032,0.183-0.098,0.247c-0.065,0.065-0.147,0.098-0.247,0.098h-0.66
							C611.715,295.91,611.632,295.878,611.566,295.812z"/>
						<path fill="#E74C3C" d="M615.167,295.812c-0.065-0.064-0.098-0.147-0.098-0.247v-7.11c0-0.1,0.032-0.183,0.098-0.247
							c0.065-0.065,0.147-0.098,0.247-0.098h0.646c0.11,0,0.194,0.03,0.255,0.09s0.09,0.146,0.09,0.255v0.66
							c0.3-0.37,0.647-0.655,1.043-0.855c0.395-0.199,0.887-0.3,1.477-0.3c0.961,0,1.705,0.308,2.235,0.923s0.795,1.428,0.795,2.438
							v4.245c0,0.1-0.032,0.183-0.097,0.247c-0.066,0.065-0.148,0.098-0.248,0.098h-0.689c-0.101,0-0.184-0.032-0.248-0.098
							c-0.065-0.064-0.098-0.147-0.098-0.247v-4.155c0-0.72-0.175-1.28-0.525-1.68c-0.35-0.4-0.85-0.601-1.5-0.601
							c-0.64,0-1.149,0.203-1.529,0.607c-0.381,0.405-0.57,0.963-0.57,1.673v4.155c0,0.1-0.032,0.183-0.098,0.247
							c-0.064,0.065-0.147,0.098-0.247,0.098h-0.69C615.314,295.91,615.232,295.878,615.167,295.812z"/>
						<path fill="#E74C3C" d="M624.699,293.285v-4.02h-1.186c-0.1,0-0.18-0.03-0.24-0.091c-0.06-0.06-0.09-0.14-0.09-0.239v-0.48
							c0-0.1,0.03-0.183,0.09-0.247c0.061-0.065,0.141-0.098,0.24-0.098h1.186v-2.505c0-0.101,0.029-0.183,0.09-0.248
							c0.061-0.064,0.14-0.098,0.24-0.098h0.66c0.1,0,0.182,0.033,0.247,0.098c0.065,0.065,0.097,0.147,0.097,0.248v2.505h1.861
							c0.1,0,0.182,0.032,0.247,0.098c0.065,0.064,0.097,0.147,0.097,0.247v0.48c0,0.1-0.031,0.18-0.097,0.239
							c-0.065,0.061-0.147,0.091-0.247,0.091h-1.861v3.914c0,0.511,0.083,0.896,0.248,1.155c0.165,0.261,0.447,0.391,0.848,0.391
							h0.915c0.1,0,0.181,0.032,0.239,0.097c0.061,0.065,0.091,0.148,0.091,0.248v0.495c0,0.1-0.03,0.183-0.091,0.247
							c-0.059,0.065-0.14,0.098-0.239,0.098h-1.021C625.474,295.91,624.699,295.035,624.699,293.285z"/>
					</g>
				</g>
			</g>
		</g>
	</g>
</g>
</svg>
